<svg width="502" height="502" fill="none" xmlns="http://www.w3.org/2000/svg"><path d="M499.995 282.681a1 1 0 001.005-.997 1 1 0 00-1.005-.997 1 1 0 00-1.004.997 1 1 0 001.004.997zM235.903 12.415c.555 0 1.005-.446 1.005-.997 0-.55-.45-.997-1.005-.997a1 1 0 00-1.004.997 1 1 0 001.004.997zM12.284 184.234c.554 0 1.004-.447 1.004-.998 0-.55-.45-.997-1.004-.997-.555 0-1.005.447-1.005.997 0 .551.45.998 1.005.998zM174.165 414.59a1 1 0 001.004-.997 1 1 0 00-1.004-.997 1 1 0 00-1.005.997 1 1 0 001.005.997zM470.928 199.435a1 1 0 001.005-.997c0-.55-.45-.997-1.005-.997-.554 0-1.004.447-1.004.997a1 1 0 001.004.997zM175.983 93.599c.555 0 1.005-.447 1.005-.998 0-.55-.45-.996-1.005-.996a1 1 0 00-1.004.996 1 1 0 001.004.998zM451.367 405.192c.555 0 1.005-.447 1.005-.997a1 1 0 00-1.005-.997 1 1 0 00-1.004.997c0 .55.45.997 1.004.997z" stroke="#14233C"/><path d="M478.263 450.062l5.533 3.995M81.603 1l5.532 3.994M190.662 254.957l5.533 3.995M247.964 491.422l-5.614 3.881M411.619 473.981l-5.614 3.881M22.923 81.698l-5.614 3.88M125.407 184.544l-5.614 3.881M301.595 25.156l6.368-2.483M441.344 11.418l3.721 5.697M95.665 495.303L99.387 501M85.257 442.126c1.48-.334 2.99-.748 4.532-1.242M3.01 361.782c-2.212 11.381-3.536 29.36 1.173 40.986l-1.174-40.986zm97.766 74.387c-3.252 1.738-6.39 3.118-9.413 4.184l9.413-4.184zM5.779 406.05a18.9 18.9 0 002.373 3.256l-2.373-3.256zm3.95 4.754a13.834 13.834 0 003.99 2.305l-3.99-2.305zm5.419 2.753c2.101.543 4.488.666 7.192.292 24.211-3.364 29.909-31.864 29.732-45.695-.492-10.509-6.947-23.989-17.934-8.727-10.988 15.262-2.91 45.076 2.503 58.075 4.45 9.63 16.056 23.614 34.25 25.561l-55.743-29.506zm59.394 29.729a41.76 41.76 0 002.543-.037l-2.543.037zm4.436-.163a47.02 47.02 0 004.466-.619l-4.466.619zM117.888 138.217l3.718-4.305M15.656 276.499l85.747-115.382-85.747 115.382zm32.09-6.265l30.51-31.848-30.51 31.848zM88.97 161.117l2.685-3.015-2.685 3.015zm1.24-9.165l1.445-2.87-1.446 2.87zM126.393 65.43c-.28.208-.579.412-.897.608m-1.138-27.011c2.355 1.31 5.753 3.758 7.12 6.318l-7.12-6.318zm-1.34 28.234a15.77 15.77 0 002.149-1.026l-2.149 1.026zm8.806-21.147c.109.301.186.602.226.902l-.226-.902zm.258 1.402c-.004.352-.063.7-.185 1.043l.185-1.043zm-.319 1.36c-.216.45-.55.887-1.02 1.305-4.21 3.743-10.133.492-12.568-1.602-1.797-1.653-3.234-4.795 1.121-4.446 4.355.35 8.458 6.212 9.964 9.1 1.051 2.217 1.809 6.337-.558 9.817l3.061-14.173zm-3.566 14.847c-.122.149-.25.296-.386.44l.386-.44zm-.691.754c-.239.235-.498.466-.776.69l.776-.69z" stroke="#14233C" stroke-linecap="round"/><path d="M237.611 364.531h16.906m224.251 0v-77.5H354.935l123.833 77.5zm-375.479 0c-3.585-6.032-3.46-18.378 25.717-19.49l-25.717 19.49zm0 0l-44.034-15.907c0-3.041 2.812-8.962 14.06-8.319-9.99-3.791-23.978-12.479 0-16.906-10.004-.359-29.735-1.752-12.214-12.273l42.217-17.061-.029 70.466zm0 0h87.674-87.674zm25.717-19.49c-18.859-1.392-44.328-6.219 4.676-14.387-22.133-5.878-54.895-19.026-8.884-24.596l4.208 38.983zm0 0h150.567-150.567zm-4.208-38.983h57.513-57.513zm0 0c-10.88-2.304-24.9-5.621-16.506-12.46l16.506 12.46zm238.474 38.983h80.427-80.427zm-134.2-38.983h64.087-64.087zm124.368 0h101.949H353.44zm-55.857-19.027H141.934h155.649zm147.245 77.5h-95.564 95.564zm-244.16 0h19.411-19.411z" stroke="#FE4D56" stroke-linecap="round"/><path d="M10.525 332.034l49.405 17.634c2.754-9.513 15.738-8.368 18.823-8.368-3.701-1.137-12.115-5.6-14.282-7.203-.918-.983-5.413-3.847-1.436-6.697 2.396-1.717 27.702-5.011 31.3-5.557-4.26-.073-31.61 1.317-34.405-3.424-2.115-3.586 3.133-8.602 6.402-10.351l-55.807 23.966z" fill="#14233C"/><path d="M325.022 170.232l-19.339-13.769m-7.847 22.621l31.021 17.215c8.605 4.35 14.204 2.162 20.083-7.427 5.882-9.589 4.114-40.127 2.495-54.198l18.116-8.859 1.881-3.979-73.596 57.248zm47.823-57.21l-7.089 5.244-13.548 43.114 20.637-48.358zm-22.972 55.793l2.335-7.435-2.335 7.435z" stroke="#14233C" stroke-linecap="round"/><path d="M377.967 166.619l-42.286 78.306m-122.507-28.332v8.013-8.013zm13.203 34.134c17.539-2.314 54.404-6.431 81.965-7.34l-81.965 7.34zm58.094-33.808l2.793 7.687-2.793-7.687zm29.391-28.758l-23.611 43.548-2.987-7.103 26.598-36.445zm38.979-36.032c10.913-11.937 37.998-30.241 59.025-7.958 14.433 16.27-1.856 89.012-11.805 123.351h-19.082l-28.138-115.393zm3.434 115.393c.047.729.049 1.419.015 2.061l-11.047 146.039h-57.308l68.34-148.1zm0 0h24.704-24.704zm0 0c-.458-7.279-5.183-18.406-20.594-22.597l20.594 22.597zm-143.101-42.916l.952 62.333h85.447L257.75 415.622h30.185l-74.761-191.016zm0 0h13.203-13.203zm74.09 0h-60.887 60.887zm-60.887 0l-5.74 44.977h102.955l-35.657 146.039-61.558-191.016zm81.965 18.781c5.535-.181 10.697-.233 15.25-.116 4.618.118 8.623.711 12.089 1.654l-27.339-1.538zm0 0l79.788-95.073-7.151 119.208-72.637-24.135z" stroke="#14233C"/><path d="M262.153 434.46l12.26-19.12h37.781l-2.753 9.682 36.529 56.865-2.252 2.482-65.553-40.971 3.004-10.926-9.008 8.442-10.008-6.454zM360.73 280.242l-2.192 7.027-3.275-.036.993-19.792h26.021l46.158 17.344-.407 2.39h-65.112l-2.186-6.933z" fill="#14233C"/><path d="M248.918 126.966v5.842h7.873m-22.663-8.758v8.758h-7.579l7.579-8.758z" stroke="#14233C" stroke-linecap="round"/><path d="M234.435 126.724v-2.889l-1.671-2.247c8.28-9.159 12.326-17.119 13.316-19.955 2.457 2.098 5.37 3.406 6.522 3.799.69 1.327 1.078 3.085 1.185 3.798.413 3.799-.022 12.465-5.067 16.745-5.045 4.28-10.87 1.035-13.152-1.123.448.963 1.358 2.754 2.802 4.012 3.187 2.78 9.181 2.497 10.727 1.712v-3.584l10.08-1.017c-1.922-12.608-8.968-36.85-21.777-32.955-12.808 3.895-14.896 24.271-14.34 33.972l11.375-.268z" fill="#14233C"/><path d="M253.633 108.236c-1.781.147-3.692 1.19-4.41 3.378-.97 2.958-.077 6.588 2.52 8.699-.225.081-2.599.237-4.763-1.222M244.568 109.816c-1.219-.463-4.006-.665-5.393 2.223M247.548 123.165c-.696.231-2.392.375-3.615-.902M244.77 113.697c-.899-1.025-3.228-2.408-5.35.262M254.541 112.668c-.987-.942-3.43-2.113-5.305.733" stroke="#14233C" stroke-linecap="round"/><path d="M242.142 114.778a1.092 1.092 0 01-1.147-1.032 1.089 1.089 0 011.039-1.138 1.09 1.09 0 011.147 1.031 1.09 1.09 0 01-1.039 1.139zM252.022 113.976a1.093 1.093 0 01-1.235-.926 1.087 1.087 0 01.933-1.226 1.094 1.094 0 011.235.926 1.089 1.089 0 01-.933 1.226z" fill="#14233C"/><path d="M178.215 177.41l-44.496 90.056-33.239-6.879c-3.2-.752-4.363.466-2.695 2.547-2.042-1.156-6.288.189-4.363 4.332-1.925-.601-4.572.832-3.337 3.694.129.295.59 1.017 1.412 1.528.821.508 3.422 1.655 4.62 2.164h-6.802c-2.105 0-3.61 3.566 0 4.586l24.512 3.948-11.422 5.349c-2.108 1.203-3.058 5.71 2.182 5.349 2.464 0 23.528-3.565 33.752-5.349l7.956-3.948 56.806-88.275" stroke="#14233C"/><path d="M95.32 274.771l13.086 1.596m-10.74-13.293l16.998 5.185-16.999-5.185zm-4.44 4.323l18.425 5.693-18.425-5.693z" stroke="#14233C" stroke-linecap="round"/><path d="M206.226 136.836c5.989-2.678 16.177-4.728 20.713-4.883 0 4.714 2.146 15.033 11.229 15.9 13.326 1.572 16.343-10.299 16.32-15.9h11.326c11.639 0 17.221 4.919 20.297 7.041l21.123 17.236-10.796 31.366-18.776-9.471 8.449 40.372h-73.693l-1.564-29.657-8.382 14.992-28.249-23.685c8.281-14.258 21.009-38.394 32.003-43.311z" fill="#FE4D56"/><path d="M276.694 175.394l-1.887-7.922m-64.143 19.011v-8.496 8.496z" stroke="#14233C" stroke-linecap="round"/><path clip-rule="evenodd" d="M416.977 73.119l2.708 45.7h-77.293V72.341l74.585.778zM313.542 119.575h106.247l.248 1.82-106.495-.065v-1.755z" stroke="#14233C"/><path clip-rule="evenodd" d="M413.387 75.391l2.435 41.077h-69.567V74.692l67.132.7z" stroke="#14233C"/><path d="M394.451 107.742a15.6 15.6 0 001.301-.357m-24.906-22.702c-.633 3.266-1.014 8.426.337 11.763l-.337-11.763zm28.058 21.349c-.932.498-1.833.895-2.7 1.201l2.7-1.201zm-27.263-8.644c.202.343.428.657.682.934l-.682-.934zm1.135 1.364c.339.28.719.503 1.143.662l-1.143-.662zm1.554.79c.603.156 1.289.192 2.064.084 6.95-.966 8.584-9.145 8.533-13.114-.141-3.016-1.994-6.885-5.147-2.505-3.152 4.38-.835 12.937.718 16.667 1.278 2.764 4.61 6.777 9.83 7.336l-15.998-8.468zm17.046 8.532c.241.004.484 0 .731-.011l-.731.011zm1.274-.047c.416-.037.844-.095 1.281-.177l-1.281.177z" stroke="#FE4D56" stroke-linecap="round"/></svg>