<svg width="459" height="429" viewBox="0 0 459 429" fill="none" xmlns="http://www.w3.org/2000/svg">
<path d="M407.304 227.568C407.808 227.568 408.217 227.179 408.217 226.701C408.217 226.222 407.808 225.833 407.304 225.833C406.8 225.833 406.391 226.222 406.391 226.701C406.391 227.179 406.8 227.568 407.304 227.568Z" stroke="#14233C"/>
<path d="M113.909 309.472C114.413 309.472 114.822 309.084 114.822 308.605C114.822 308.126 114.413 307.738 113.909 307.738C113.404 307.738 112.995 308.126 112.995 308.605C112.995 309.084 113.404 309.472 113.909 309.472Z" stroke="#14233C"/>
<path d="M44.8297 334.921C45.334 334.921 45.7428 334.533 45.7428 334.054C45.7428 333.575 45.334 333.187 44.8297 333.187C44.3254 333.187 43.9166 333.575 43.9166 334.054C43.9166 334.533 44.3254 334.921 44.8297 334.921Z" stroke="#14233C"/>
<path d="M46.4282 29.008C46.9324 29.008 47.3412 28.6198 47.3412 28.1409C47.3412 27.662 46.9324 27.2738 46.4282 27.2738C45.9239 27.2738 45.5151 27.662 45.5151 28.1409C45.5151 28.6198 45.9239 29.008 46.4282 29.008Z" stroke="#14233C"/>
<path d="M297.185 72.2576C297.69 72.2576 298.098 71.8693 298.098 71.3904C298.098 70.9115 297.69 70.5233 297.185 70.5233C296.681 70.5233 296.272 70.9115 296.272 71.3904C296.272 71.8693 296.681 72.2576 297.185 72.2576Z" stroke="#14233C"/>
<path d="M174.518 355.958C175.023 355.958 175.431 355.57 175.431 355.091C175.431 354.612 175.023 354.224 174.518 354.224C174.014 354.224 173.605 354.612 173.605 355.091C173.605 355.57 174.014 355.958 174.518 355.958Z" stroke="#14233C"/>
<path d="M400.677 97.6796L405.706 101.153" stroke="#14233C" stroke-linecap="round"/>
<path d="M100.265 402.476C101.485 402.723 102.755 402.925 104.076 403.079M66.9901 318.135C61.3722 325.524 54.1144 337.911 53.5684 347.752L66.9901 318.135ZM113.909 403.328C110.879 403.497 108.058 403.452 105.433 403.218L113.909 403.328ZM53.6141 350.616C53.7169 351.699 53.9231 352.739 54.2459 353.719L53.6141 350.616ZM54.8983 355.307C55.4401 356.387 56.1562 357.379 57.0687 358.261L54.8983 355.307ZM57.9774 359.051C59.3543 360.13 61.09 361.002 63.2366 361.623C82.4545 367.184 96.6427 348.731 101.334 338.81C104.634 331.154 104.525 319.418 91.0123 326.691C77.4998 333.961 73.1208 357.88 72.6203 368.931C72.5777 377.262 76.3504 391.051 89.2314 398.419L57.9774 359.051ZM91.8749 399.779C92.4927 400.064 93.1284 400.334 93.7831 400.589L91.8749 399.779ZM95.2381 401.121C96.3668 401.508 97.5475 401.851 98.7823 402.147L95.2381 401.121Z" stroke="#FE4D56" stroke-linecap="round"/>
<path d="M326.206 53.7921C340.267 33.1931 368.609 -1.45937 369.498 24.7235C370.612 57.4521 359.621 41.6771 363.07 32.0868C367.374 20.1241 380.859 11.6511 396.065 19.2804" stroke="#14233C" stroke-linecap="round"/>
<path d="M301.649 143.168L306.677 146.642" stroke="#14233C" stroke-linecap="round"/>
<path d="M217.213 4.9241L222.632 2.03059" stroke="#14233C" stroke-linecap="round"/>
<path d="M142.574 393.239L147.603 396.711" stroke="#14233C" stroke-linecap="round"/>
<path d="M6.14677 253.132L1.04462 256.507" stroke="#14233C" stroke-linecap="round"/>
<path d="M299.737 377.723L294.634 381.098" stroke="#14233C" stroke-linecap="round"/>
<path d="M427.415 294.953L422.312 298.328" stroke="#14233C" stroke-linecap="round"/>
<path d="M25.9596 108.487L22.3542 103.676" stroke="#14233C" stroke-linecap="round"/>
<path d="M430.2 48.029L435.987 45.8698" stroke="#14233C" stroke-linecap="round"/>
<path d="M405.439 1L408.821 5.95486" stroke="#14233C" stroke-linecap="round"/>
<path d="M1 383.478L4.38237 388.432" stroke="#14233C" stroke-linecap="round"/>
<path d="M349.361 163.59L386.718 164.432V356.934L345.641 356.177M285.879 162.16L321.573 162.963L285.879 162.16ZM245.546 354.336L329.552 355.899L245.546 354.336Z" stroke="#FE4D56"/>
<path d="M293.607 299.28L336.928 301.752M322.96 185.526H359.889H322.96ZM301.655 206.882H353.735H301.655ZM286.27 228.464H356.102H286.27ZM288.873 248.472H349.71H288.873ZM286.27 274.775H349.71H286.27Z" stroke="#FE4D56" stroke-linecap="round"/>
<path d="M266.275 331.411H238.081M72.2047 88.3092L115.48 46.1671L72.2047 88.3092ZM72.2047 88.3092L76.2387 331.411H186.285L72.2047 88.3092ZM72.2047 88.3092L115.48 95.6231V46.1671L72.2047 88.3092ZM115.48 46.1671H286.013V299.664L115.48 46.1671Z" stroke="#14233C"/>
<path d="M124.09 228.197H195.127M99.4211 213.237L106.257 230.738L113.985 203.358L99.4211 213.237ZM95.2599 155.938C95.7354 157.067 102.789 172.78 106.257 180.495L113.985 152.269L95.2599 155.938ZM95.2599 112.47L106.257 128.276L113.985 106.26L95.2599 112.47ZM121.415 129.97H216.303H121.415ZM250.706 129.97H222.836H250.706ZM124.09 178.52H144.896H124.09Z" stroke="#14233C" stroke-linecap="round"/>
<path d="M153.571 216.761C134.215 204.423 130.415 155.105 130.678 130.116C135.875 149.108 147.729 189.381 153.571 198.527C159.414 207.673 171.925 203.836 177.451 200.775L200.542 190.841C199.782 196.703 198.871 203.724 197.882 211.367C186.869 219.028 164.934 224.002 153.571 216.761Z" fill="#14233C"/>
<path d="M263.341 208.475L285.836 300.074L270.99 195.807L285.836 206.943V212.588C291.372 215.881 299.197 217.704 308.009 216.98C331.139 215.084 336.407 186.658 342.996 171.34L355.261 163.004H350.733L340.518 168.988L338.372 172.752C332.793 182.227 318.911 202.635 308.009 208.475C297.108 214.314 288.686 206.041 285.836 201.176L263.341 179.211V208.475Z" fill="#14233C"/>
<path d="M236.865 280.595C237.627 294.293 247.391 325.233 280.35 339.412C313.309 353.591 337.277 358.028 345.142 358.474L357.819 318.345L285.28 299.618L265.238 209.727M196.714 216.092C193.544 240.393 187.106 293.933 185.979 315.336C184.853 336.738 190.206 376.42 193.021 393.587L255.349 387.902L233.869 318.345L236.865 280.595L196.714 216.092ZM239.151 251.797L236.865 280.595L239.151 251.797Z" stroke="#14233C" stroke-linecap="round"/>
<path d="M236.099 427.548H250.706L243.332 388.726L216.75 391.514L219.093 398.561L160.01 427.548H228.25L234.791 419.059L236.099 427.548Z" fill="#14233C"/>
<path d="M392.34 346.595L396.771 333.376L355.202 328.122L347.222 353.171L358.096 353.189L369.255 415.449L389.959 353.697L383.425 345.203L392.34 346.595Z" fill="#14233C"/>
<path fill-rule="evenodd" clip-rule="evenodd" d="M214.835 140.087L214.734 139.557L214.167 139.551C213.448 139.544 212.572 139.492 211.812 139.435C213.508 137.979 214.54 136.099 215.104 133.932C215.347 133 215.683 132.062 216.114 131.134C217.67 127.787 220.165 125.24 222.918 123.813C225.667 122.387 228.635 122.094 231.204 123.172C233.775 124.249 235.548 126.529 236.291 129.419C237.034 132.311 236.734 135.779 235.179 139.126C233.624 142.474 231.127 145.021 228.376 146.447C225.627 147.874 222.659 148.167 220.088 147.088C217.3 145.919 215.448 143.332 214.835 140.087Z" stroke="#14233C"/>
<path d="M226.047 136.855C220.936 132.688 220.972 126.383 221.532 124.148C229.995 116.76 242.126 120.946 243.347 130.075C243.347 135.618 243.983 138.492 246.057 139.91C250.925 142.317 250.807 147.264 250.505 150.078L233.465 151.041L232.357 142.622C230.651 142.304 229.428 141.117 228.974 140.458C230.668 139.663 232.701 137.434 231.022 135.618C229.344 133.799 225.819 136.665 226.047 136.855Z" fill="#14233C"/>
<path d="M217.423 132.853C218.275 132.066 220.527 130.951 222.733 132.782" stroke="#14233C" stroke-linecap="round"/>
<path d="M218.178 142.804C218.843 142.849 220.369 142.604 221.152 141.263" stroke="#14233C" stroke-linecap="round"/>
<path d="M217.68 135.658C218.396 134.69 220.367 133.285 222.541 135.403" stroke="#14233C" stroke-linecap="round"/>
<path d="M220.159 136.357C220.708 136.329 221.128 135.883 221.097 135.362C221.067 134.841 220.598 134.442 220.049 134.471C219.501 134.5 219.081 134.945 219.111 135.466C219.141 135.987 219.611 136.386 220.159 136.357Z" fill="#14233C"/>
<path d="M226.827 138.474C227.145 137.919 228.188 136.833 229.798 136.932" stroke="#14233C" stroke-linecap="round"/>
<path d="M228.294 137.36C228.733 137.47 229.442 137.997 228.764 139.214" stroke="#14233C" stroke-linecap="round"/>
<path d="M232.579 143.89L233.501 151.433M222.138 148.176L222.551 152.163L222.138 148.176Z" stroke="#14233C" stroke-linecap="round"/>
<path d="M223.094 151.312L221.891 147.478C225.745 147.83 229.606 146.286 231.055 145.47C228.153 149.155 224.538 150.901 223.094 151.312Z" fill="#14233C"/>
<path d="M27.1221 428H458" stroke="#14233C" stroke-linecap="round"/>
<path d="M337.025 174.418L340.199 169.102L366.559 153.864C369.154 152.454 369.164 150.995 366.752 150.657C368.831 150.187 370.808 146.829 366.937 145.335C368.59 144.58 369.452 142.109 366.84 141.021C366.569 140.907 365.81 140.722 364.947 140.883C364.084 141.044 361.64 141.851 360.526 142.233L365.039 138.222C366.437 136.979 365.204 133.828 362.171 135.31L343.435 147.262L347.665 137.129C348.313 135.121 346.122 131.699 342.871 135.019C341.235 136.471 329.491 151.159 323.823 158.323L321.015 165.522" stroke="#14233C"/>
<path d="M361.105 141.815L351.425 148.519M366.87 150.624L352.346 157.358L366.87 150.624ZM367.11 145.261L351.322 152.514L367.11 145.261Z" stroke="#14233C" stroke-linecap="round"/>
<path d="M153.306 122.762C153.027 122.408 138.335 96.9094 131.023 84.2043C129.642 81.8047 126.356 82.5643 127.756 87.5281C129.156 92.492 130.984 97.4262 131.723 99.2728C124.411 101.673 110.745 109.998 114.572 124.092C118.539 139.05 119.589 118.663 122.389 118.552C124.629 118.463 132.967 130.481 136.857 136.501" stroke="#14233C"/>
<path d="M221.733 147.626C218.163 147.345 215.82 143.643 215.094 141.826C215.644 141.574 215.488 141.555 210.473 143.492C205.46 145.427 205.516 150.519 206.172 152.822L222.37 151.612L221.733 147.626Z" fill="#14233C"/>
<path d="M203.062 152.318L256.041 149.577C264.639 150.598 273.27 157.706 276.51 161.134L300.972 188.567L321.006 161.134L340.11 171.911C335.373 181.446 323.103 202.196 311.922 208.922C300.739 215.648 290.644 208.774 286.994 204.496L264.163 181.044L266.725 212.904L195.904 216.886L198.699 192.549L175.407 204.496C165.556 208.922 156.624 207.435 148.378 195.205C140.438 183.424 132.479 146.488 130.236 128.987L155.764 121.349L165.556 171.911C169.111 169.974 176.375 165.044 180.011 162.719C190.713 155.346 197.449 152.765 203.062 152.318Z" fill="#FE4D56"/>
<path d="M198.826 189.934L199.165 179.216" stroke="#14233C" stroke-linecap="round"/>
<path d="M264.047 178.071L264.386 167.355" stroke="#14233C" stroke-linecap="round"/>
<path d="M300.505 200.649L300.844 189.934" stroke="#14233C" stroke-linecap="round"/>
<path d="M154.895 178.857L163.963 172.471" stroke="#14233C" stroke-linecap="round"/>
<path d="M195.507 223.711L196.286 216.834L215.385 215.762V222.774L195.507 223.711Z" fill="#14233C"/>
<path d="M266.018 212.919L267.705 220.308L255.59 220.879L254.921 213.543L266.018 212.919Z" fill="#14233C"/>
<path d="M221.02 222.509V215.446L250.198 213.807V221.133L221.02 222.509Z" fill="#14233C"/>
<path d="M210.616 241.868L193.999 311.502L225.891 390.509M200.1 226.701C200.614 230.595 203.454 237.416 210.616 241.868L200.1 226.701ZM222.84 245.925C217.803 245.344 213.787 243.838 210.616 241.868L222.84 245.925Z" stroke="#14233C" stroke-linecap="round"/>
<path d="M238.093 269.364L277.748 325.723L355.674 324.142" stroke="#14233C"/>
</svg>
