<svg width="402" height="404" fill="none" xmlns="http://www.w3.org/2000/svg"><path d="M252.979 185.032a.795.795 0 00.793-.797.795.795 0 00-.793-.797.795.795 0 00-.793.797c0 .44.355.797.793.797zM193.399 10.171a.795.795 0 00.793-.796.795.795 0 00-.793-.797.795.795 0 00-.793.797c0 .44.355.796.793.796zM15.857 148.286a.795.795 0 00.794-.797.795.795 0 00-.793-.797.795.795 0 00-.793.797c0 .44.354.797.793.797zM361.679 32.89a.795.795 0 00.793-.797.795.795 0 00-.793-.797.795.795 0 00-.793.797c0 .44.355.797.793.797zM379.993 160.509a.795.795 0 00.793-.797.794.794 0 10-1.586 0c0 .44.355.797.793.797zM145.819 75.44a.795.795 0 00.793-.797.795.795 0 00-.793-.797.795.795 0 00-.793.797c0 .44.355.797.793.797zM364.462 325.912a.794.794 0 00.793-.796.794.794 0 00-.793-.797.794.794 0 00-.793.797c0 .44.355.796.793.796z" stroke="#14233C"/><path d="M384.751 242.692l4.399 3.203M70.888 1l4.4 3.218M202.975 395.24l-4.459 3.127M332.907 381.227l-4.459 3.127M24.296 65.877l-4.459 3.128M88.38 133.566l-4.46 3.127M1 275.71l5.057-2M280.435 1.21l2.962 4.586M320.593 165.937l2.963 4.586M82.05 398.367l2.948 4.586M107.157 94.956a31.47 31.47 0 002.858-.797m-54.852-50.61c-1.391 7.278-2.23 18.795.748 26.222l-.748-26.221zm61.794 47.602c-2.05 1.113-4.04 2-5.955 2.677l5.955-2.677zM56.914 71.876c.449.767.942 1.459 1.496 2.09l-1.496-2.09zm2.498 3.037a8.665 8.665 0 002.53 1.474l-2.53-1.474zm3.427 1.76c1.331.345 2.843.42 4.548.18 15.307-2.15 18.898-20.388 18.793-29.244-.314-6.72-4.384-15.35-11.342-5.578-6.942 9.773-1.84 28.853 1.587 37.167 2.812 6.165 10.144 15.111 21.65 16.359L62.839 76.673zm37.54 19.034c.524.015 1.062 0 1.601-.03l-1.601.03zm2.798-.105a28.31 28.31 0 002.828-.39l-2.828.39z" stroke="#14233C" stroke-linecap="round"/><path d="M345.161 282.506c.299-.076.598-.151.913-.256m-17.476-16.133c-.449 2.316-.718 5.984.239 8.36l-.239-8.36zm19.69 15.171c-.658.345-1.287.631-1.9.857l1.9-.857zm-19.137-6.135c.135.241.3.466.479.662l-.479-.662zm.793.963c.24.195.509.36.808.466l-.808-.466zm1.093.571a3.81 3.81 0 001.451.06c4.878-.692 6.03-6.495 5.985-9.322-.105-2.15-1.407-4.886-3.621-1.774s-.584 9.202.509 11.848c.897 1.969 3.231 4.811 6.897 5.217l-11.221-6.029zm11.969 6.059c.165 0 .344 0 .509-.015l-.509.015zm.898-.03c.299-.03.599-.075.898-.12l-.898.12z" stroke="#FE4D56" stroke-linecap="round"/><path d="M315.506 252.676l-2.918-47.256-62.003 4.841m-70.308 5.518l23.207-1.819-23.207 1.819zM162.861 238.843l151.942 7.713" stroke="#14233C"/><path d="M152.732 252.6l42.523-57.976L212.7 235.22l41.67-17.336c-8.813-18.764-31.914-58.683-51.305-67.839" stroke="#14233C" stroke-linecap="round"/><path d="M214.99 252.961l.897-18.929 25.451-10.735 1.511 3.909 41.536 23.304-.449 2.451h-54.343l-2.619-8.72-2.393 8.72h-9.591zM355.724 251.834l-18.822-1.369-21.277 1.369-1.84-27.199h13.062l3.935-1.414 29.162-37.212 2.438.511-6.299 50.654-8.738 2.406 8.619 2.616-.24 9.638z" fill="#14233C"/><path d="M193.938 171.906l42.253 53.571M126.279 252.45l42.971-55.57-42.971 55.57zM188.028 148.165c-2.619.151-9.815 2.647-17.566 11.412M154.557 177.695l-11.356 13.095" stroke="#14233C" stroke-linecap="round"/><path d="M167.844 156.104l8.438 12.013 13.511-22.267v-2.932m-37.256 32.1l15.307 20.493c2.454 2.181 8.753 5.022 14.244-1.052s17.296-34.927 22.503-48.594l-52.054 29.153z" stroke="#14233C" stroke-linecap="round"/><path d="M234.934 115.088h6.569l-2.349 4.751m-43.555 22.012l-21.681 3.773 1.572-4.751 20.109.978zm0 0l-23.955-.963 1.018-3.879 22.937 4.842zm0 0l-30.344-6.421 16.608-31.98 26.229 10.976-12.493 27.425zm0 0l12.508-27.41-12.508 27.41zm0 0l25.271 2.901 14.064-29.649-39.335 26.748zm0 0l28.278 8.795 15.262-30.807-43.54 22.012zm0 0l28.278 13.847 17.626-35.167-2.349-.677-43.555 21.997zm12.508-27.41l27.755-1.293-.928 1.94-26.827-.647z" stroke="#14233C"/><path d="M147.435 21.719v2m106.352 81.716l44.782-54.262-44.782 54.262zm-10.01-25.395l6.224-24.988-6.224 24.988zm13.511 64.802l54.088-19.741-54.088 19.741zm-70.203-53.961l-1.571-60.276 1.571 60.276zm104.377-48.038l-1.781 2.977 1.781-2.977zm-2.619 10.63l1.841-2.285-1.841 2.285zm20.409-13.817l2.124-1.85-2.124 1.85zM163.295 14.742v2.556-2.556zm-.987 18.223v1.85-1.85zM219.643 135.235c.194-.045.404-.105.598-.165m-11.521-10.6c-.284 1.533-.463 3.939.165 5.503l-.165-5.503zm12.973 9.953a9.744 9.744 0 01-1.242.571l1.242-.571zm-12.599-4.014c.09.165.195.3.315.436l-.315-.436zm.539.631c.15.136.329.241.524.301l-.524-.301zm.703.376c.285.075.599.09.958.03 3.202-.451 3.95-4.285 3.935-6.134-.06-1.414-.928-3.218-2.379-1.173s-.374 6.044.344 7.788c.599 1.293 2.14 3.158 4.549 3.428l-7.407-3.939zm7.885 3.969h.33-.33zm.584-.015c.194-.015.389-.045.598-.09l-.598.09z" stroke="#14233C" stroke-linecap="round"/><path d="M160.258 134.724l11.296 19.876-20.378 23.125-2.424-3.248-4.594 14.359c0 3.383 0 19.395-5.491 29.033-5.266 9.232-16.024 7.157-17.969 17.215-3.711 19.215-8.334 14.69-10.279 17.862h-29.67c-5.85-32.852 1.256-59.224 9.486-75.236 9.231-17.967 23.61-43.001 38.752-51.316 12.104-6.63 24.538-1.293 31.271 8.33z" fill="#FE4D56"/><path d="M147.42 172.898l-5.236-8.284" stroke="#14233C" stroke-linecap="round"/><path d="M154.886 108.487c.3 1.308.434 2.707.389 4.165-.03.977-.149 1.909-.344 2.812-.508 2.42-.479 4.36.823 6.48.075.045-1.825-.391-3.187-1.038-1.87 2.586-4.533 4.165-7.451 4.06-4.204-.15-7.646-3.774-8.828-8.706" stroke="#14233C"/><path d="M153.899 113.238c-.509-.902-2.11-2.45-4.429-1.383M148.573 122.62c-.539-.21-1.646-1.007-1.721-2.42M152.941 115.659c-.344-1.037-1.631-2.766-4.01-1.428" stroke="#14233C" stroke-linecap="round"/><path d="M150.981 115.719a.87.87 0 00.868-.872.87.87 0 00-.868-.872.87.87 0 00-.867.872.87.87 0 00.867.872z" fill="#14233C"/><path d="M156.697 111.825l-1.601-4.135-4.474-.977-14.588 7.713c.165.451-.299 1.639-3.486 2.872-3.98 1.549-8.304 4.135-8.858 7.788-.449 2.917-5.865 4.21-8.513 4.481l34.398 3.999c-.389-.917-.673-3.774 1.391-7.923 2.065-4.15-1.601-10.946-3.695-13.818h9.426z" fill="#14233C"/><path d="M132.578 119.147l25.047-11.983-1.257-5.052-1.317.271c-1.092-2.526-3.83-4.225-7.002-5.503-3.172-1.263-4.324-2.42-7.93-3.954-2.888-1.233-3.726-.18-3.771.496-.404 2.075-1.78 7.172-4.099 10.991s-1.227 8.074-.389 9.728l-1.317 1.428 2.035 3.578z" fill="#14233C"/><path clip-rule="evenodd" d="M77.008 252.405H373.65c15.097 0 27.351 12.299 27.351 27.484 0 15.171-12.239 27.485-27.351 27.485H77.009v-54.969z" stroke="#14233C"/><path d="M76.41 258.72h190.02c11.73 0 21.246 9.562 21.246 21.35 0 11.787-9.516 21.35-21.246 21.35H76.41" stroke="#14233C"/><path d="M144.592 287.272h81.769m-137.114-4.496l169.896-8.329-169.896 8.329z" stroke="#14233C" stroke-linecap="round"/><path d="M120.698 281.242l-26.094 1.354v39.001l26.707 2.12-.613-42.475z" fill="#14233C"/><path d="M301.157 252.81l2.963 54.909m-11.85-54.909l1.092 54.909-1.092-54.909z" stroke="#14233C"/><path clip-rule="evenodd" d="M350.024 308.306H53.383c-15.097 0-27.351 12.299-27.351 27.484 0 15.171 12.239 27.485 27.35 27.485h296.642v-54.969z" stroke="#14233C"/><path d="M350.353 311.945H153.57c-13.107 0-23.73 10.675-23.73 23.861 0 13.17 10.623 23.845 23.73 23.845h196.783" stroke="#14233C"/><path d="M279.177 343.849h-85.344m143.114-5.021l-177.363-9.322 177.363 9.322z" stroke="#14233C" stroke-linecap="round"/><path d="M253.188 333.746l27.246 1.518v43.587l-13.72-12.208-14.169 14.584.643-47.481z" fill="#FE4D56"/><path d="M97.671 308.607l-2.963 54.909m11.865-54.909l-1.092 54.909 1.092-54.909z" stroke="#14233C"/></svg>