<svg width="366" height="372" fill="none" xmlns="http://www.w3.org/2000/svg"><path d="M302.953 362.581c.257-.178.499-.371.741-.579m-21.76-8.81c.413 2.377 1.482 5.957 3.192 7.859l-3.192-7.859zm23.442 7.071c-.47.58-.955 1.085-1.439 1.516l1.439-1.516zm-19.723 1.308c.214.178.442.327.67.445l-.67-.445zm1.083.624c.285.104.585.148.898.148l-.898-.148zm1.197.119c.428-.045.87-.208 1.354-.491 4.218-2.466 3.206-8.423 2.166-11.097-.855-2.006-3.021-4.13-3.947-.342-.926 3.788 2.736 8.958 4.688 11.068 1.525 1.53 4.674 3.372 8.18 2.377l-12.441-1.515zm13.125 1.292c.157-.059.314-.119.47-.193l-.47.193zm.812-.357a8.68 8.68 0 00.784-.46l-.784.46z" stroke="#FE4D56" stroke-linecap="round"/><path d="M236.389 314.566a29.298 29.298 0 002.509-.728m-48.181-45.979c-1.212 6.625-1.938 17.099.684 23.873l-.684-23.873zm54.28 43.216c-1.796 1.01-3.534 1.827-5.216 2.451l5.216-2.451zm-52.698-17.441a11.24 11.24 0 001.311 1.902l-1.311-1.902zm2.194 2.763a7.533 7.533 0 002.209 1.337l-2.209-1.337zm3.007 1.59c1.168.312 2.494.386 3.99.163 13.424-1.976 16.545-18.585 16.445-26.637-.285-6.12-3.876-13.964-9.947-5.066-6.07 8.899-1.567 26.251 1.44 33.813 2.479 5.6 8.92 13.742 19.01 14.856L197.5 297.987zm32.961 17.263c.456 0 .927 0 1.411-.03l-1.411.03zm2.451-.104a21.932 21.932 0 002.48-.372l-2.48.372z" stroke="#F7F7F7" stroke-linecap="round"/><path d="M292.38 187.25c.417 0 .755-.353.755-.788 0-.434-.338-.787-.755-.787-.418 0-.756.353-.756.787 0 .435.338.788.756.788zM28.318 145.088c.417 0 .755-.352.755-.787 0-.435-.338-.787-.755-.787s-.755.352-.755.787c0 .435.338.787.755.787zM76.186 349.493c.417 0 .755-.353.755-.788 0-.435-.338-.787-.755-.787-.418 0-.756.352-.756.787 0 .435.338.788.755.788zM83.04 38.437c.417 0 .755-.353.755-.788 0-.435-.338-.787-.755-.787s-.755.352-.755.787c0 .435.338.788.755.788z" stroke="#F7F7F7"/><path d="M360.81 195.658l4.19 3.165M117.825 106.656l4.19 3.179M30.442 265.11l-4.247 3.09M307.528 301.389l-4.247 3.09M21.093 56.59l-4.247 3.09M231.829 11.666l4.817-1.976M337.497.762l2.821 4.53M1 350.087l2.807 4.531" stroke="#F7F7F7" stroke-linecap="round"/><path d="M128.855 240.018h9.434M98.473 298.7l-1.767 41.686 53.867-1.634 109.686-3.313v-95.435L98.473 298.7zm117.41-79.257h44.376v20.561l-44.376-20.561zm44.376 20.575h-86.158 86.158z" stroke="#F7F7F7"/><path d="M93.115 11.86L97.02 33.83l16.616-7.19-15.405 12.613 13.766 7.056-15.96-3.105 3.348 20.636-8.25-20.071-14.508 16.386 9.563-18.674-14.35-5.021 13.722-.892-4.118-9.21 7.995 6.596 3.676-21.096z" fill="#FE4D56"/><path d="M166.391 145.683h-44.533v22.105H55.28v92.034h30.268" stroke="#F7F7F7"/><path d="M139.201 36.907h9.976m-25.096 0h10.76-10.76zM323.745 178.633v10.399m0-26.161v11.231-11.231zM323.745 210.44v10.399m0-26.176v11.231-11.231zM323.745 241.846v10.399m0-26.176v11.216-11.216zM307.984 252.245h9.975m-25.109 0h10.773-10.773zM277.858 252.245h9.976m-25.11 0h10.759-10.759zM197.585 36.907h9.976m-25.11 0h10.774-10.774zM239.781 36.907h10.759M240.394 36.907h10.773M251.481 56.383v10.399m0-26.176v11.23-11.23zM168.301 36.907h9.975m-25.095 0h10.773-10.773zM226.685 36.907h9.975m-25.109 0h10.759-10.759zM251.481 71.06v11.232M272.871 82.292h9.975m-25.109 0h10.759-10.759z" stroke="#F7F7F7" stroke-linecap="round"/><path d="M215.997 235.681c2.235 0 4.047-1.889 4.047-4.22 0-2.33-1.812-4.219-4.047-4.219-2.235 0-4.047 1.889-4.047 4.219 0 2.331 1.812 4.22 4.047 4.22zM228.081 235.681c2.236 0 4.048-1.889 4.048-4.22 0-2.33-1.812-4.219-4.048-4.219-2.235 0-4.047 1.889-4.047 4.219 0 2.331 1.812 4.22 4.047 4.22zM241.249 235.681c2.235 0 4.047-1.889 4.047-4.22 0-2.33-1.812-4.219-4.047-4.219-2.235 0-4.047 1.889-4.047 4.219 0 2.331 1.812 4.22 4.047 4.22z" fill="#F7F7F7"/><path d="M233.34 167.788l3.591 51.67h-69.258l-29.17-46.366 39.773-4.873" stroke="#F7F7F7"/><path d="M327.949 142.162l-7.311 6.819m-27.788-3.759l7.225-6.136 10.844-3.506c1.297-.118 3.406.401 1.468 3.506-.784.877-4.517 2.764-6.284 3.61l-13.253 2.526zm5.486 12.553l14.892 1.516c5.572-4.829 16.73-14.515 16.73-14.663.684-2.318-1.054-2.615-2.009-2.466l-29.613 15.613zm7.752-15.079l5.088.61 9.448-7.726c1.069-.52 3.064-.832 2.494 2.14l-17.03 4.976zm0 0c-.114 2.155-1.154 6.864-4.431 8.528l4.431-8.528zm17.044-4.991c1.226-.58 3.42-.936 2.494 2.139l-2.494-2.139zm0 0l-7.695 6.923 7.695-6.923zm2.494 2.139c.983-.342 2.821-.416 2.323 2.318l-2.323-2.318zm0 0l-7.524 7.131 7.524-7.131z" stroke="#F7F7F7" stroke-linecap="round"/><path d="M102.862 187.666l-2.836.921-25.137-5.467c-2.423-.594-3.306.371-2.038 2.02-1.54-.921-4.76.149-3.306 3.447-1.454-.476-3.463.653-2.523 2.941.1.238.442.803 1.07 1.218.626.402 2.593 1.323 3.49 1.724h-5.144c-1.596 0-2.736 2.837 0 3.64l18.54 3.134-8.636 4.249c-1.596.951-2.308 4.531 1.653 4.249 1.867 0 17.785-2.838 25.523-4.249l6.014-3.135" stroke="#F7F7F7"/><path d="M70.998 194.396l9.89 1.262m-8.123-10.562l12.854 4.115-12.854-4.115zm-3.349 3.446l13.938 4.516-13.938-4.516z" stroke="#F7F7F7" stroke-linecap="round"/><path d="M214.501 91.963l-1.354 6.745 21.532 5.229v-2.525c-.042-3.417-2.836-4.992-4.218-5.364.171-1.99-1.168-2.362-1.867-2.302.3-.594.813-2.214.528-3.922-.984-4.308-4.888-4.903-6.727-4.65 4.033-5.66-.199-10.162-2.821-11.707-.128-.802-.584-2.689-1.468-3.892-1.496-2.303-4.988-2.065-6.541-1.664-3.591-2.6-5.558-.104-6.085 1.47l-1.368.194c-4.247.862-3.919 5.17-3.235 7.205-.071 0-2.522 1.04-3.676 1.902-3.307 2.466-2.765 7.383-1.654 9.27-.669.208-2.394.847-3.918 1.783-4.361 2.911-2.879 8.14-1.582 10.28l13.424-1.931.456-1.367c.128.163.869.52 2.878.698 3.107.149 5.843-3.016 6.826-4.62-3.862 2.778-6.27 2.213-7.795 1.293-2.28-1.382-3.748-5.81-4.175-7.993 3.007-1.144 2.879-4.264 2.437-5.675.171.223.955.654 2.707.654 2.893.044 2.936-2.14 2.608-3.24 2.651 1.1 4.104-.46 4.489-1.38.656 3.401 2.822 3.862 3.819 3.669.77 5.645-1.824 10.25-3.22 11.84z" fill="#F7F7F7"/><path d="M214.173 175.944l12.555 37.423-65.196-4.19" stroke="#F7F7F7" stroke-linecap="round"/><path d="M186.256 100.847s4.689-1.56 13.994-2.347l4.161 13.162 8.793-12.94c3.947.714 13.609 2.675 20.72 4.844 7.111 2.169 11.643 9.017 13.011 12.167l17.257 40.557 29-11.647 8.351 18.733c-9.292 6.15-29.77 18.882-37.351 20.65-9.505 2.6-15.476-5.11-17.257-9.285l-14.579-35.848 1.568 29.059h-55.32l-40.201 4.917s-3.848.966-6.755 2.897c-10.773 7.131-21.945 27.573-21.945 27.573l-7.639-16.074 51.502-30.975c5.001-11.751 15.561-36.308 17.827-40.557 3.491-8.632 9.562-13.49 14.863-14.886z" fill="#FE4D56"/><path d="M217.764 81.237c-1.297-.371-2.936-.119-4.019 1.322-1.467 1.946-1.781 4.888-.498 7.176-.186 0-1.91-.535-3.064-2.214M210.91 79.945c-.741-.684-2.665-1.59-4.418.193M209.513 90.715c-.556-.015-1.796-.371-2.323-1.649M210.026 82.9c-.37-1.01-1.653-2.673-3.862-1.262M217.237 84.788c-.456-.966-1.881-2.511-3.962-.892" stroke="#F7F7F7" stroke-linecap="round"/><path d="M208.131 83.02c.456 0 .826-.386.826-.862s-.37-.862-.826-.862c-.457 0-.827.386-.827.862s.37.862.827.862zM215.284 85.1c.457 0 .827-.386.827-.862s-.37-.862-.827-.862c-.456 0-.826.386-.826.862s.37.862.826.862zM124.067 370.559l31.693-53.69a2431.095 2431.095 0 01-11.728-50.125l39.146 4.116 17.215 57.968-8.764 5.214-4.375-6.952v8.913l-63.187 34.556z" fill="#F7F7F7"/><path d="M144.032 266.73l39.146 4.115m-34.087-81.144c-5.002.431-15.177 4.397-15.847 16.743-.399 7.309 4.831 33.53 10.788 60.301l5.059-77.044zm18.811 29.682l15.276 51.477-15.276-51.477zm-23.87 47.347a2409.466 2409.466 0 0011.728 50.124l-31.693 53.69 63.187-34.555v-8.914l4.375 6.953 8.764-5.215-17.215-57.968-39.146-4.115z" stroke="#F7F7F7" stroke-linecap="round"/><path d="M8.054 288.093l58.911-14.247a2313.751 2313.751 0 0125.95-43.945l24.711 31.911-27.447 53.512-9.718-2.823 1.667-8.141-6.085 6.269-67.989-22.536z" fill="#F7F7F7"/><path d="M117.626 261.812l18.012-35.164m-42.737 3.239c14.08-23.22 28.288-45.549 33.546-50.392 4.574-4.219 6.598-5.274 12.398-6.106l-45.944 56.498zm0 0c-9.718 16.029-19.366 32.505-25.95 43.944L8.054 288.093l67.989 22.536 6.085-6.269-1.667 8.141 9.719 2.823 27.446-53.512-24.725-31.925zm0 0l24.711 31.91-24.71-31.91zM178.475 168.219l5.829-33.887M232.399 138.136l-.513-6.968" stroke="#F7F7F7" stroke-linecap="round"/><path d="M323.745 128.643c17.976 0 32.548-15.192 32.548-33.932 0-18.74-14.572-33.93-32.548-33.93-17.976 0-32.548 15.19-32.548 33.93 0 18.74 14.572 33.932 32.548 33.932z" stroke="#F7F7F7"/><path d="M323.745 116.981c12.254 0 22.188-10.356 22.188-23.131s-9.934-23.131-22.188-23.131-22.188 10.356-22.188 23.13c0 12.776 9.934 23.132 22.188 23.132z" stroke="#F7F7F7"/><path d="M336.941 98.366c.242-.178.499-.371.741-.58m-21.761-8.81c.414 2.378 1.482 5.958 3.192 7.86l-3.192-7.86zm23.457 7.058a12.96 12.96 0 01-1.44 1.515l1.44-1.516zm-19.723 1.307c.214.178.442.327.67.446l-.67-.446zm1.069.624c.285.104.584.148.898.148l-.898-.148zm1.197.133c.427-.059.883-.207 1.354-.49 4.218-2.48 3.206-8.423 2.166-11.097-.855-2.006-3.021-4.13-3.948-.342-.912 3.788 2.736 8.958 4.689 11.068 1.524 1.53 4.688 3.372 8.179 2.377l-12.44-1.516zm13.124 1.293c.157-.06.314-.134.471-.193l-.471.193zm.813-.371c.256-.134.513-.283.784-.46l-.784.46z" stroke="#F7F7F7" stroke-linecap="round"/></svg>