<svg width="459" height="427" viewBox="0 0 459 427" fill="none" xmlns="http://www.w3.org/2000/svg">
<path d="M304.206 195.599C304.736 195.599 305.166 195.22 305.166 194.752C305.166 194.284 304.736 193.904 304.206 193.904C303.676 193.904 303.246 194.284 303.246 194.752C303.246 195.22 303.676 195.599 304.206 195.599Z" stroke="#14233C"/>
<path d="M232.507 10.7026C233.037 10.7026 233.467 10.3232 233.467 9.85513C233.467 9.38707 233.037 9.00763 232.507 9.00763C231.977 9.00763 231.547 9.38707 231.547 9.85513C231.547 10.3232 231.977 10.7026 232.507 10.7026Z" stroke="#14233C"/>
<path d="M18.8709 156.749C19.401 156.749 19.8307 156.369 19.8307 155.901C19.8307 155.433 19.401 155.053 18.8709 155.053C18.3408 155.053 17.9111 155.433 17.9111 155.901C17.9111 156.369 18.3408 156.749 18.8709 156.749Z" stroke="#14233C"/>
<path d="M336.951 118.658C337.481 118.658 337.911 118.279 337.911 117.81C337.911 117.342 337.481 116.963 336.951 116.963C336.421 116.963 335.991 117.342 335.991 117.81C335.991 118.279 336.421 118.658 336.951 118.658Z" stroke="#14233C"/>
<path d="M457.04 169.67C457.57 169.67 458 169.291 458 168.823C458 168.355 457.57 167.975 457.04 167.975C456.51 167.975 456.08 168.355 456.08 168.823C456.08 169.291 456.51 169.67 457.04 169.67Z" stroke="#14233C"/>
<path d="M72.7805 365.034C73.3105 365.034 73.7403 364.655 73.7403 364.187C73.7403 363.719 73.3105 363.339 72.7805 363.339C72.2504 363.339 71.8207 363.719 71.8207 364.187C71.8207 364.655 72.2504 365.034 72.7805 365.034Z" stroke="#14233C"/>
<path d="M175.262 79.7088C175.792 79.7088 176.222 79.3294 176.222 78.8613C176.222 78.3932 175.792 78.0138 175.262 78.0138C174.732 78.0138 174.302 78.3932 174.302 78.8613C174.302 79.3294 174.732 79.7088 175.262 79.7088Z" stroke="#14233C"/>
<path d="M438.352 344.563C438.882 344.563 439.312 344.184 439.312 343.715C439.312 343.247 438.882 342.868 438.352 342.868C437.822 342.868 437.392 343.247 437.392 343.715C437.392 344.184 437.822 344.563 438.352 344.563Z" stroke="#14233C"/>
<path d="M313.04 356.249C313.57 356.249 314 355.87 314 355.402C314 354.934 313.57 354.554 313.04 354.554C312.51 354.554 312.08 354.934 312.08 355.402C312.08 355.87 312.51 356.249 313.04 356.249Z" stroke="#14233C"/>
<path d="M392.372 273.054L397.658 276.448" stroke="#14233C" stroke-linecap="round"/>
<path d="M85.0952 1L90.3811 4.39478" stroke="#14233C" stroke-linecap="round"/>
<path d="M244.03 417.859L238.667 421.158" stroke="#14233C" stroke-linecap="round"/>
<path d="M400.378 403.034L395.015 406.333" stroke="#14233C" stroke-linecap="round"/>
<path d="M29.0352 69.5933L23.672 72.892" stroke="#14233C" stroke-linecap="round"/>
<path d="M92.1117 223.065L86.7485 226.364" stroke="#14233C" stroke-linecap="round"/>
<path d="M1 291.473L7.08349 289.362" stroke="#14233C" stroke-linecap="round"/>
<path d="M420.251 36.1565L423.807 40.9992" stroke="#14233C" stroke-linecap="round"/>
<path d="M385.57 175.398L389.126 180.242" stroke="#14233C" stroke-linecap="round"/>
<path d="M98.5302 421.158L102.086 426" stroke="#14233C" stroke-linecap="round"/>
<path d="M388.536 92.9006C389.661 92.6735 390.809 92.3943 391.981 92.0595M325.985 38.5357C324.303 46.2368 323.297 58.4012 326.878 66.2686L325.985 38.5357ZM400.337 88.8695C397.863 90.0443 395.478 90.9793 393.179 91.7009L400.337 88.8695ZM328.091 68.4889C328.622 69.299 329.222 70.0383 329.895 70.6928L328.091 68.4889ZM331.094 71.7067C331.995 72.3643 333.003 72.8917 334.13 73.2658L331.094 71.7067ZM335.217 73.5695C336.814 73.9365 338.631 74.0203 340.687 73.766C359.099 71.4899 363.433 52.2053 363.298 42.8473C362.923 35.7368 358.015 26.616 349.658 36.9426C341.302 47.2691 347.445 67.4425 351.563 76.2384C354.946 82.7548 363.773 92.2164 377.611 93.5335L335.217 73.5695ZM380.387 93.6844C381.023 93.6935 381.667 93.6853 382.321 93.6593L380.387 93.6844ZM383.761 93.5739C384.866 93.4868 385.999 93.3486 387.156 93.155L383.761 93.5739Z" stroke="#14233C" stroke-linecap="round"/>
<path d="M75.4018 296.679C75.7197 296.616 76.0445 296.536 76.3758 296.441M57.7262 281.317C57.2511 283.494 56.9664 286.931 57.9784 289.153L57.7262 281.317ZM78.7368 295.539C78.0379 295.872 77.3635 296.135 76.7137 296.341L78.7368 295.539ZM58.3217 289.781C58.4717 290.01 58.6411 290.218 58.8314 290.404L58.3217 289.781ZM59.1703 290.691C59.4243 290.877 59.7091 291.024 60.0278 291.131L59.1703 290.691ZM60.3349 291.217C60.7866 291.32 61.2996 291.344 61.8807 291.272C67.0837 290.629 68.3083 285.179 68.2701 282.535C68.1644 280.526 66.7774 277.949 64.416 280.866C62.0548 283.785 63.7908 289.485 64.954 291.97C65.9104 293.813 68.4046 296.485 72.3145 296.859L60.3349 291.217ZM73.0991 296.9C73.2786 296.903 73.4608 296.9 73.6457 296.894L73.0991 296.9ZM74.0524 296.87C74.365 296.844 74.6849 296.806 75.0122 296.751L74.0524 296.87Z" stroke="#FE4D56" stroke-linecap="round"/>
<path d="M233.6 378.779L239.084 373.935L207.273 343.102L204.897 356.663L123.724 369.9L127.198 375.388L200.691 398.313L210.746 391.532V400.249L227.933 405.254L233.6 378.779Z" fill="#14233C"/>
<path d="M165.315 351.173L170.801 346.331L138.99 315.497L136.613 329.058L55.4402 342.294L58.9138 347.784L132.408 370.706L142.463 363.926V372.644L159.648 377.649L165.315 351.173Z" fill="#14233C"/>
<path d="M210.381 347.622L214.952 336.159M235.611 371.676C235.757 370.643 245.056 351.442 249.688 341.972L235.611 371.676Z" stroke="#14233C" stroke-linecap="round"/>
<path d="M142.097 320.017L147.065 306.13M167.326 344.07C167.474 343.037 176.85 325.68 181.483 316.209L167.326 344.07Z" stroke="#14233C" stroke-linecap="round"/>
<path d="M412.871 282.015L413.341 285.39L440.669 287.471C443.321 287.61 443.937 288.686 442.158 289.778C444.011 289.401 446.981 291.198 444.522 293.654C446.151 293.636 447.865 295.164 446.24 296.881C446.07 297.059 445.545 297.461 444.789 297.644C444.034 297.825 441.753 298.081 440.707 298.186L445.971 299.582C447.599 300.013 447.93 302.778 444.898 302.738L421.688 300.523L432.593 306.455C433.943 307.714 433.624 311.012 429.653 309.69C427.746 309.184 411.177 306.13 403.684 302.806L397.057 297.035L389.457 279.993" stroke="#14233C"/>
<path d="M216.651 163.247L214.964 138.001L197.79 125.29L181.31 128.972C180.384 130.053 180.078 132.251 186.273 132.391C192.469 132.531 195.54 132.449 196.3 132.391L204.342 140.719C204.243 142.909 203.269 147.451 200.172 148.083C199.686 148.181 194.811 149.222 193.421 146.768C192.31 144.803 190.841 140.719 189.451 138.001C188.027 137.095 185.022 136.563 184.388 141.682C183.753 146.803 190.146 161.173 193.421 167.718" stroke="#14233C" stroke-linecap="round"/>
<path d="M441.343 298.294L430.845 296.709M442.266 289.761L427.901 289.845L442.266 289.761ZM444.69 293.648L429.102 293.787L444.69 293.648Z" stroke="#14233C" stroke-linecap="round"/>
<path d="M314.133 145.765C318.785 145.892 321.03 149.418 321.241 150.782C325.805 150.782 337.523 151.577 347.887 154.758C358.249 157.937 366.153 168.517 368.811 173.411L425.807 281.809L385.551 286.56L357.252 219.112L374.705 274.383C353.037 255.568 305.199 214.131 287.503 207.373C269.806 200.616 255.307 212.384 250.268 219.112C248.757 217.705 245.052 214.673 242.321 213.8C225.433 208.519 211.39 216 206.481 220.401L179.216 168.366L222.312 156.319L239.023 199.82C244.887 192.313 258.768 175.512 267.388 168.366C276.006 161.222 288.281 157.359 293.34 156.319C293.342 155.516 293.468 153.543 293.978 152.066C294.613 150.221 308.316 145.604 314.133 145.765Z" fill="#FE4D56"/>
<path d="M277.267 205.117L281.528 189.017M355.641 214.735L348.774 192.99L355.641 214.735Z" stroke="#14233C" stroke-linecap="round"/>
<path d="M238.495 201.77L236.614 208.858" stroke="#14233C" stroke-linecap="round"/>
<path d="M325.636 143.541L310.808 147.377L311.245 142.261C304.593 138.91 304.256 132.486 302.578 130.41C297.395 133.929 290.622 134.411 288.364 134.353C288.092 135.599 288.217 137.125 288.312 137.733C288.953 140.859 291.607 147.59 297.141 150.02C296.468 150.377 294.993 151.181 294.469 151.55L281.24 153.575C280.613 149.548 284.945 147.273 284.65 140.158C284.14 127.918 290.913 120.532 298.913 120.606C303.977 120.653 306.886 122.88 310.655 125.789C312.641 127.32 314.509 127.727 318 130.516C323.724 136.551 319.219 140.312 325.636 143.541Z" fill="#14233C"/>
<path d="M314.086 147.418L317.007 151.537M296.281 151.788L297.132 156.874L296.281 151.788ZM300.214 150.462L301.39 154.796L300.214 150.462ZM304.798 149.281L306.624 153.149L304.798 149.281ZM308.489 147.633L310.882 152.791L308.489 147.633Z" stroke="#14233C" stroke-linecap="round"/>
<path d="M288.182 136.885C289.853 136.58 291.889 136.974 293.142 138.587C294.837 140.766 295.006 143.94 293.204 146.28C293.43 146.294 295.649 145.854 297.233 144.148" stroke="#14233C" stroke-linecap="round"/>
<path d="M296.918 136.01C297.91 135.342 300.409 134.512 302.466 136.535" stroke="#14233C" stroke-linecap="round"/>
<path d="M297.823 147.604C298.522 147.626 300.115 147.34 300.889 146.006" stroke="#14233C" stroke-linecap="round"/>
<path d="M297.791 139.223C298.698 139.496 300.963 139.666 302.764 138.159" stroke="#14233C" stroke-linecap="round"/>
<path d="M288.557 140.716C289.504 141.485 291.844 142.429 293.616 140.048" stroke="#14233C" stroke-linecap="round"/>
<path d="M241.001 233.022L211.191 228.013L187.193 318.031M249.93 219.282C250.788 218.093 253.502 214.923 257.484 211.759C279.697 194.569 304.262 216.762 319.88 228.013L358.025 260.348L249.93 219.282ZM249.93 219.282C245.916 214.094 232.55 206.376 211.191 216.989C200.561 221.902 157.674 276.513 137.559 303.205L187.193 318.031L249.93 219.282ZM249.93 219.282C247.728 222.038 244.48 226.787 241.001 233.022L249.93 219.282ZM225.929 272.262L199.265 321.637L187.193 318.031L225.929 272.262ZM225.929 272.262L207.95 334.956L249.93 341.875L225.929 272.262ZM225.929 272.262C229.295 256.765 235.44 242.993 241.001 233.022L225.929 272.262ZM278.187 307.51L274.074 345.852L249.93 341.875L278.187 307.51ZM278.187 307.51L358.025 303.743C363.914 299.94 375.447 288.726 374.475 274.294L358.025 260.348L278.187 307.51ZM278.187 307.51L285.691 252.743L278.187 307.51ZM249.93 341.875L278.187 225.672L350.18 295.916L358.025 260.348L249.93 341.875Z" stroke="#14233C" stroke-linecap="round"/>
<path d="M186.563 127.902C186.724 128.124 187.058 128.19 187.31 128.048C187.561 127.906 187.635 127.612 187.474 127.389L186.563 127.902ZM191.205 141.612C191.205 155.957 178.035 167.586 161.79 167.586V168.54C178.633 168.54 192.285 156.484 192.285 141.612H191.205ZM161.79 115.638C172.214 115.638 181.335 120.659 186.563 127.902L187.474 127.389C182.068 119.899 172.619 114.684 161.79 114.684V115.638ZM189.438 132.726C190.582 135.497 191.205 138.49 191.205 141.612H192.285C192.285 138.377 191.639 135.274 190.454 132.399L189.438 132.726ZM132.46 143.612C132.403 142.952 132.374 142.285 132.374 141.612H131.294C131.294 142.309 131.324 143 131.383 143.684L132.46 143.612ZM147.216 164.179C140.276 160.677 135.107 154.752 133.189 147.709L132.139 147.932C134.128 155.235 139.487 161.378 146.679 165.007L147.216 164.179ZM161.79 167.586C157.037 167.586 152.547 166.591 148.575 164.824L148.089 165.676C152.208 167.508 156.864 168.54 161.79 168.54V167.586ZM132.374 141.612C132.374 138.672 132.927 135.847 133.946 133.213L132.924 132.905C131.867 135.637 131.294 138.566 131.294 141.612H132.374ZM134.268 132.423C138.471 122.612 149.209 115.638 161.79 115.638V114.684C148.744 114.684 137.614 121.916 133.257 132.086L134.268 132.423Z" fill="#14233C"/>
<path d="M151.56 179.244C156.402 179.244 160.327 175.778 160.327 171.503C160.327 167.228 156.402 163.762 151.56 163.762C146.719 163.762 142.794 167.228 142.794 171.503C142.794 175.778 146.719 179.244 151.56 179.244Z" stroke="#14233C"/>
<path d="M128.856 127.472C128.835 130.597 131.687 133.146 135.227 133.164C138.766 133.182 141.652 130.664 141.673 127.538C141.694 124.413 138.841 121.864 135.302 121.846C131.763 121.828 128.876 124.346 128.856 127.472Z" stroke="#14233C"/>
<path d="M151.56 178.122C155.7 178.122 159.056 175.158 159.056 171.503C159.056 167.847 155.7 164.884 151.56 164.884C147.42 164.884 144.064 167.847 144.064 171.503C144.064 175.158 147.42 178.122 151.56 178.122Z" stroke="#14233C"/>
<path d="M129.804 127.477C129.786 130.139 132.217 132.31 135.232 132.326C138.247 132.342 140.706 130.196 140.724 127.533C140.742 124.871 138.312 122.7 135.296 122.684C132.281 122.668 129.822 124.814 129.804 127.477Z" stroke="#14233C"/>
<path d="M121.881 148.001C122.755 145.229 125.636 143.196 129.054 143.196C133.166 143.196 136.498 146.138 136.498 149.769C136.498 153.399 133.166 156.341 129.054 156.341C127.534 156.341 126.12 155.939 124.942 155.249" stroke="#14233C"/>
<path d="M122.064 148.421C122.352 148.354 122.524 148.092 122.448 147.838C122.372 147.583 122.076 147.431 121.788 147.499L122.064 148.421ZM95.3714 154.154L95.2335 153.693L93.4475 154.109L95.2063 154.609L95.3714 154.154ZM106.302 157.254L106.137 157.707L106.459 157.799L106.692 157.583L106.302 157.254ZM108.508 155.217L108.701 154.771L108.366 154.658L108.118 154.887L108.508 155.217ZM114.525 157.254L114.332 157.699L114.755 157.842L114.988 157.499L114.525 157.254ZM116.932 153.712L117.294 153.357L116.806 152.969L116.468 153.465L116.932 153.712ZM120.04 156.19L119.678 156.545L119.886 156.71L120.158 156.656L120.04 156.19ZM125.077 155.682C125.368 155.624 125.551 155.37 125.486 155.112C125.421 154.855 125.132 154.694 124.841 154.752L125.077 155.682ZM121.788 147.499L95.2335 153.693L95.5093 154.615L122.064 148.421L121.788 147.499ZM95.2063 154.609L106.137 157.707L106.467 156.799L95.5365 153.701L95.2063 154.609ZM106.692 157.583L108.898 155.546L108.118 154.887L105.912 156.923L106.692 157.583ZM108.315 155.663L114.332 157.699L114.718 156.807L108.701 154.771L108.315 155.663ZM114.988 157.499L117.395 153.957L116.468 153.465L114.062 157.007L114.988 157.499ZM116.569 154.065L119.678 156.545L120.402 155.837L117.294 153.357L116.569 154.065ZM120.158 156.656L125.077 155.682L124.841 154.752L119.922 155.725L120.158 156.656Z" fill="#14233C"/>
<path fill-rule="evenodd" clip-rule="evenodd" d="M147.776 178.951L141.736 188.976L147.776 178.951ZM141.736 188.976L135.697 199.001L145.502 203.956C145.909 202.292 144.757 199.001 144.757 199.001C144.757 199.001 149.668 199.359 149.565 197.618C149.506 196.6 147.776 195.543 147.776 195.543C147.776 195.543 151.247 195.86 153.145 195.05L141.736 188.976Z" stroke="#14233C"/>
<path fill-rule="evenodd" clip-rule="evenodd" d="M128.983 124.977L120.533 120.951L128.983 124.977ZM120.533 120.951L112.083 116.925L107.849 123.367C109.255 123.643 112.044 122.898 112.044 122.898C112.044 122.898 111.718 126.135 113.192 126.075C114.052 126.04 114.953 124.904 114.953 124.904C114.953 124.904 114.671 127.191 115.347 128.446L120.533 120.951Z" stroke="#14233C"/>
<path d="M132.089 151.492C133.168 151.492 134.042 150.72 134.042 149.768C134.042 148.815 133.168 148.043 132.089 148.043C131.011 148.043 130.137 148.815 130.137 149.768C130.137 150.72 131.011 151.492 132.089 151.492Z" stroke="#14233C"/>
<path d="M231.126 53.2936V82.415H187.805V53.2936H231.126ZM209.466 60.5062C207.059 60.5062 205.107 62.2293 205.107 64.3547C205.107 65.8721 206.102 67.1845 207.547 67.8111L204.065 76.6762H214.867L211.297 67.8479C212.789 67.237 213.824 65.9025 213.824 64.3547C213.824 62.2293 211.873 60.5062 209.466 60.5062Z" fill="#14233C"/>
<path fill-rule="evenodd" clip-rule="evenodd" d="M228.014 55.4947C228.129 47.9673 224.926 32.77 211.194 32.2002C201.811 31.8109 196.698 38.9052 194.219 45.9256L199.422 47.8078C201.134 41.714 205.152 36.3517 211.736 36.8973C221.005 37.665 222.675 49.7644 222.715 55.4947H228.014Z" stroke="#14233C"/>
<path d="M52.5471 126.827L60.4769 140.571L40.0315 149.769L32.1017 136.025L52.5471 126.827ZM47.3932 135.721C46.8145 134.718 45.4244 134.319 44.2884 134.83C43.1523 135.341 42.7006 136.568 43.2794 137.571C43.6926 138.288 44.5194 138.696 45.372 138.685L46.1421 143.609L51.241 141.315L47.1517 137.906C47.6897 137.301 47.8148 136.451 47.3932 135.721Z" fill="#14233C"/>
<path fill-rule="evenodd" clip-rule="evenodd" d="M37.3963 121.103C30.7604 123.75 32.805 132.018 34.6568 135.821L37.5414 134.886C35.8834 131.419 33.7869 124.676 38.5043 123.024C43.0871 121.418 47.5978 126.955 49.1764 129.651L51.6773 128.526C49.6819 124.949 44.0321 118.457 37.3963 121.103Z" stroke="#14233C"/>
<path d="M112.124 229.842L143.895 246.427L129.596 267.784L97.8252 251.2L112.124 229.842ZM124.468 243.425C122.703 242.503 120.426 243.02 119.382 244.579C118.637 245.691 118.722 247.034 119.474 248.047L112.567 253.215L120.49 257.352L122.206 249.51C123.6 249.633 125.015 249.051 125.775 247.916C126.818 246.357 126.233 244.346 124.468 243.425Z" fill="#14233C"/>
<path fill-rule="evenodd" clip-rule="evenodd" d="M139.634 223.328C129.843 217.652 118.892 227.232 114.64 232.731L118.565 235.384C122.467 230.407 131.028 222.08 137.636 226.312C144.056 230.423 139.43 240.604 136.645 244.821L140.531 246.85C144.312 241.375 149.425 229.001 139.634 223.328Z" stroke="#14233C"/>
</svg>
