<svg width="502" height="502" viewBox="0 0 502 502" fill="none" xmlns="http://www.w3.org/2000/svg">
<path d="M488.246 163.802C488.825 163.802 489.294 163.346 489.294 162.784C489.294 162.223 488.825 161.767 488.246 161.767C487.667 161.767 487.197 162.223 487.197 162.784C487.197 163.346 487.667 163.802 488.246 163.802Z" stroke="#14233C"/>
<path d="M479.148 299.23C479.727 299.23 480.196 298.775 480.196 298.213C480.196 297.651 479.727 297.195 479.148 297.195C478.569 297.195 478.1 297.651 478.1 298.213C478.1 298.775 478.569 299.23 479.148 299.23Z" stroke="#14233C"/>
<path d="M51.7339 187.739C52.3128 187.739 52.7822 187.284 52.7822 186.722C52.7822 186.16 52.3128 185.705 51.7339 185.705C51.1549 185.705 50.6855 186.16 50.6855 186.722C50.6855 187.284 51.1549 187.739 51.7339 187.739Z" stroke="#14233C"/>
<path d="M137.103 437.653C137.682 437.653 138.151 437.197 138.151 436.636C138.151 436.074 137.682 435.618 137.103 435.618C136.524 435.618 136.055 436.074 136.055 436.636C136.055 437.197 136.524 437.653 137.103 437.653Z" stroke="#14233C"/>
<path d="M286.062 59.5863C286.641 59.5863 287.11 59.1308 287.11 58.5689C287.11 58.007 286.641 57.5515 286.062 57.5515C285.483 57.5515 285.014 58.007 285.014 58.5689C285.014 59.1308 285.483 59.5863 286.062 59.5863Z" stroke="#14233C"/>
<path d="M240.568 347.431C241.147 347.431 241.616 346.976 241.616 346.414C241.616 345.852 241.147 345.397 240.568 345.397C239.989 345.397 239.52 345.852 239.52 346.414C239.52 346.976 239.989 347.431 240.568 347.431Z" stroke="#14233C"/>
<path d="M140.089 55.9968C140.668 55.9968 141.138 55.5413 141.138 54.9794C141.138 54.4175 140.668 53.962 140.089 53.962C139.51 53.962 139.041 54.4175 139.041 54.9794C139.041 55.5413 139.51 55.9968 140.089 55.9968Z" stroke="#14233C"/>
<path d="M132.355 228.531L138.171 232.639" stroke="#14233C" stroke-linecap="round"/>
<path d="M222.47 1L228.285 5.10796" stroke="#14233C" stroke-linecap="round"/>
<path d="M35.8708 448.633L29.9766 452.626" stroke="#14233C" stroke-linecap="round"/>
<path d="M493.033 471.803L487.139 475.796" stroke="#14233C" stroke-linecap="round"/>
<path d="M443.722 273.469L437.828 277.462" stroke="#14233C" stroke-linecap="round"/>
<path d="M297.672 276.809L291.777 280.802" stroke="#14233C" stroke-linecap="round"/>
<path d="M39.8669 77.2468L33.9727 81.2396" stroke="#14233C" stroke-linecap="round"/>
<path d="M389.863 74.6554L396.549 72.1023" stroke="#14233C" stroke-linecap="round"/>
<path d="M479.029 5.10803L482.946 10.9628" stroke="#14233C" stroke-linecap="round"/>
<path d="M35.9707 321.939L39.8672 327.794" stroke="#14233C" stroke-linecap="round"/>
<path d="M1 500.981H499.085" stroke="#14233C" stroke-linecap="round"/>
<path d="M231.787 465.276C215.409 473.664 171.163 491.037 125.334 493.379M264.027 221.85C263.177 240.125 251.052 286.407 209.436 325.298C157.416 373.902 159.018 382.637 165.447 396.035L264.027 221.85ZM165.447 396.035C132.059 396.035 101.876 425.943 73.947 429.379C54.7017 431.74 39.2737 411.623 51.1414 383.577C63.0288 355.532 74.2635 338.083 128.835 298.827C172.508 267.422 186.848 231.314 188.549 217.186L165.447 396.035ZM165.447 396.035L239.619 378.279C243.516 379.892 251.052 386.553 250.063 400.259L165.447 396.035ZM165.447 396.035C183.545 399.011 212.245 415.385 182.318 457.06L165.447 396.035Z" stroke="#FE4D56" stroke-linecap="round"/>
<path d="M174.862 446.367C175.93 455.255 182.318 455.082 185.384 453.892C179.035 465.813 158.484 490.518 126.995 494.012C95.5065 497.506 70.8416 485.604 62.4551 479.212L174.862 446.367Z" fill="#14233C"/>
<path d="M261.258 190.542C253.544 113.892 222.985 88.0349 208.684 84.6948L139.1 119.459C148.812 116.042 171.242 121.82 183.188 172.267" stroke="#FE4D56"/>
<path d="M133.997 203.096C117.699 143.665 131.723 121.109 140.426 117.808C143.136 116.79 151.66 117.328 161.649 125.332C171.638 133.337 178.284 152.207 180.677 160.346L133.997 203.096Z" fill="#14233C"/>
<path d="M441.27 27.625L445.582 50.2572L463.977 42.8475L446.907 55.8432L462.157 63.1185L444.494 59.9128L448.193 81.182L439.074 60.4887L423.014 77.362L433.596 58.1276L417.693 52.9446L432.883 52.0232L428.314 42.5211L437.176 49.3166L441.27 27.625Z" fill="#14233C"/>
<path fill-rule="evenodd" clip-rule="evenodd" d="M58.6379 244.502L62.9498 267.134L81.3446 259.725L64.275 272.72L79.5249 279.996L61.8619 276.79L65.5607 298.059L56.4423 277.366L40.3617 294.239L50.9437 275.005L35.041 269.822L50.2316 268.9L45.6626 259.398L54.5237 266.194L58.6379 244.502Z" stroke="#14233C"/>
<path d="M459.11 332.017L460.712 340.406L467.516 337.661L461.207 342.479L466.844 345.166L460.297 343.976L461.661 351.847L458.279 344.187L452.326 350.445L456.242 343.324L450.348 341.404L455.965 341.058L454.284 337.546L457.567 340.06L459.11 332.017Z" fill="#14233C"/>
<path d="M360.393 335.069C360.314 341.635 360.828 360.792 363.439 384.845C366.069 408.917 374.673 450.016 378.649 467.561L462.989 451.071L423.647 339.139V215.766L404.679 184.169M345.736 218.338L215.924 465.257H308.017L360.393 335.069L345.736 218.338ZM393.859 252.968L360.393 335.069L393.859 252.968Z" stroke="#14233C" stroke-linecap="round"/>
<path d="M375.998 296.14L371.469 350.004L445.721 453.951" stroke="#14233C"/>
<path d="M361.263 261.702L242.408 465.104M346.052 227.706C345.261 234.693 347.496 250.165 361.263 261.702L346.052 227.706ZM367.058 265.868C364.922 264.562 363.003 263.161 361.263 261.702L367.058 265.868Z" stroke="#14233C" stroke-linecap="round"/>
<path d="M309.776 201.561C300.657 218.031 290.115 220.91 279.098 221.774H196.064L162.201 201.561C159.017 199.507 159.274 196.8 161.944 195.994C159.492 195.802 156.604 192.212 160.738 189.813C158.72 189.218 157.276 186.473 160.045 184.764C160.342 184.591 161.173 184.246 162.182 184.284C163.19 184.323 166.137 184.841 167.482 185.11L161.588 181.194C159.769 179.984 160.579 176.107 164.318 177.316L187.915 188.047L181.209 176.951C180.102 174.725 181.961 170.348 186.293 173.669C188.429 175.089 199.743 186.549 207.536 193.94L275.755 190.254L279.513 183.612" stroke="#14233C"/>
<path d="M392.098 155.413L437.294 214.902L446.056 247.113C447.678 251.029 452.425 249.628 452.464 244.023C452.86 243.063 452.385 234.847 452.108 230.873L459.367 241.143L482.351 251.643L498.274 246.806C502.348 245.616 501.715 242.256 497.304 241.546C500.232 240.548 503.199 236.478 495.603 236.191C497.403 234.674 500.172 232.083 495.702 231.353C494.654 231.257 488.305 233.292 488.305 233.292C488.305 233.292 482.114 231.257 480.116 231.276L497.324 227.495C499.342 227.072 499.441 223.828 496.177 223.579C495.524 223.31 484.25 223.79 478.712 224.059L414.923 139.25" stroke="#14233C"/>
<path d="M452.207 230.854C456.084 229.242 463.343 223.751 461.365 214.749" stroke="#14233C" stroke-linecap="round"/>
<path d="M495.704 236.152L485.577 238.225L479.762 235.077M497.622 241.489L483.302 244.81L477.131 241.335L497.622 241.489Z" stroke="#14233C" stroke-linecap="round"/>
<path d="M166.752 184.707L179.055 190.869M161.807 195.975L179.628 201.35L161.807 195.975ZM160.541 189.755L179.905 195.514L160.541 189.755Z" stroke="#14233C" stroke-linecap="round"/>
<path fill-rule="evenodd" clip-rule="evenodd" d="M303.15 107.845L302.893 107.27L302.26 107.404C301.449 107.577 300.441 107.73 299.57 107.845C301.093 105.753 301.746 103.334 301.805 100.704C301.825 99.5719 301.964 98.401 302.181 97.23C303.032 92.9877 305.168 89.4364 307.878 87.1137C310.587 84.7909 313.851 83.716 317.036 84.311C320.22 84.9061 322.831 87.0945 324.453 90.2426C326.075 93.3908 326.668 97.4603 325.818 101.683C324.967 105.926 322.831 109.477 320.121 111.8C317.411 114.123 314.148 115.198 310.963 114.602C307.502 113.95 304.713 111.435 303.15 107.845Z" stroke="#14233C"/>
<path d="M314.919 101.357C308.036 97.8249 306.394 90.5688 306.414 87.8429C313.95 77.2467 328.745 79.0511 332.582 89.2635C334.066 95.6365 335.569 98.7847 338.279 99.9173C344.41 101.472 356.891 103.929 357.306 107.25C345.379 108.287 338.991 109.861 328.191 114.641L323.582 106.444C321.565 106.502 319.884 105.446 319.191 104.793C320.892 103.469 322.574 100.397 320.2 98.7079C317.807 97.0187 314.603 101.184 314.919 101.357Z" fill="#14233C"/>
<path d="M304.119 98.881C304.871 97.7677 307.106 95.9248 310.073 97.4797" stroke="#14233C" stroke-linecap="round"/>
<path d="M307.896 110.111C308.648 109.995 310.31 109.343 310.824 107.596" stroke="#14233C" stroke-linecap="round"/>
<path d="M305.168 102.048C305.722 100.762 307.561 98.6506 310.568 100.551" stroke="#14233C" stroke-linecap="round"/>
<path d="M307.839 102.279C308.472 102.279 308.986 101.78 308.986 101.165C308.986 100.55 308.472 100.052 307.839 100.052C307.205 100.052 306.691 100.55 306.691 101.165C306.691 101.78 307.205 102.279 307.839 102.279Z" fill="#14233C"/>
<path d="M316.225 103.027C316.442 102.317 317.312 100.801 319.152 100.513" stroke="#14233C" stroke-linecap="round"/>
<path d="M317.59 101.377C318.104 101.396 319.054 101.818 318.618 103.392" stroke="#14233C" stroke-linecap="round"/>
<path d="M314.642 119.306L312.367 114.718C316.798 114.161 321.466 111.339 322.87 110.034C320.595 114.987 316.145 118.461 314.642 119.306Z" fill="#14233C"/>
<path d="M304.04 109.976C304 109.919 303.941 109.842 303.901 109.784C304.02 109.708 304.06 109.784 304.04 109.976C305.424 111.954 308.589 115.62 314.127 114.756L317.252 121.091C317.252 121.091 308.49 127.406 301.943 136.793C293.636 148.676 285.902 168.563 285.902 168.563C285.23 167.526 284.28 163.687 285.902 156.565C287.92 147.658 276.329 147.121 274.232 139.577C272.096 131.898 275.716 125.333 283.489 120.784C289.719 117.137 293.22 120.323 298.343 116.849C302.537 113.988 303.961 110.84 304.04 109.976Z" fill="#14233C"/>
<path d="M293.419 151.152L277.438 185.59L310.113 203.327L320.794 180.637L343.56 220.91L405.944 184.553L391.387 159.464L420.502 138.271C409.307 130.151 383.693 113.067 370.816 109.573C354.716 105.216 350.246 105.292 338.398 109.573C328.824 113.028 322.416 116.445 311.676 125.659C302.538 133.453 295.635 145.643 293.419 151.152Z" fill="#FE4D56"/>
<path d="M389.863 156.45L381.555 141.88M319.349 177.239L314.246 167.488L319.349 177.239Z" stroke="#14233C" stroke-linecap="round"/>
<path d="M287.86 500.981H304.732L296.939 465.123H268.219V466.774L199.98 500.981H278.782L286.337 490.961L287.86 500.981Z" fill="#14233C"/>
<path d="M442.061 500.981H458.933L449.815 453.356L419.473 459.46L422.44 466.793L354.201 501H433.002L440.558 490.98L442.061 500.981Z" fill="#14233C"/>
</svg>
