<svg width="451" height="443" viewBox="0 0 451 443" fill="none" xmlns="http://www.w3.org/2000/svg">
<path d="M350.135 272.11C350.646 272.11 351.06 271.703 351.06 271.201C351.06 270.699 350.646 270.293 350.135 270.293C349.624 270.293 349.209 270.699 349.209 271.201C349.209 271.703 349.624 272.11 350.135 272.11Z" stroke="#14233C"/>
<path d="M222.977 11.4549C223.488 11.4549 223.902 11.0483 223.902 10.5466C223.902 10.0449 223.488 9.63818 222.977 9.63818C222.465 9.63818 222.051 10.0449 222.051 10.5466C222.051 11.0483 222.465 11.4549 222.977 11.4549Z" stroke="#14233C"/>
<path d="M34.4747 177.055C34.9858 177.055 35.4002 176.648 35.4002 176.146C35.4002 175.645 34.9858 175.238 34.4747 175.238C33.9635 175.238 33.5492 175.645 33.5492 176.146C33.5492 176.648 33.9635 177.055 34.4747 177.055Z" stroke="#14233C"/>
<path d="M93.1295 412.874C93.6406 412.874 94.055 412.468 94.055 411.966C94.055 411.464 93.6406 411.058 93.1295 411.058C92.6183 411.058 92.204 411.464 92.204 411.966C92.204 412.468 92.6183 412.874 93.1295 412.874Z" stroke="#14233C"/>
<path d="M384.814 92.8666C385.326 92.8666 385.74 92.4599 385.74 91.9582C385.74 91.4565 385.326 91.0498 384.814 91.0498C384.303 91.0498 383.889 91.4565 383.889 91.9582C383.889 92.4599 384.303 92.8666 384.814 92.8666Z" stroke="#14233C"/>
<path d="M101.529 54.0118C102.04 54.0118 102.454 53.6051 102.454 53.1034C102.454 52.6018 102.04 52.1951 101.529 52.1951C101.018 52.1951 100.603 52.6018 100.603 53.1034C100.603 53.6051 101.018 54.0118 101.529 54.0118Z" stroke="#14233C"/>
<path d="M444.866 288.769L450 292.437" stroke="#14233C" stroke-linecap="round"/>
<path d="M79.998 1L85.1319 4.66781" stroke="#14233C" stroke-linecap="round"/>
<path d="M37.0764 315.523L31.8727 319.088" stroke="#14233C" stroke-linecap="round"/>
<path d="M385.792 434.436L380.589 438.001" stroke="#14233C" stroke-linecap="round"/>
<path d="M25.6214 74.9561L20.4177 78.521" stroke="#14233C" stroke-linecap="round"/>
<path d="M283.849 23.1267L289.751 20.8472" stroke="#14233C" stroke-linecap="round"/>
<path d="M413.33 10.5466L416.787 15.7741" stroke="#14233C" stroke-linecap="round"/>
<path d="M1 413.56L4.44001 418.788" stroke="#14233C" stroke-linecap="round"/>
<path d="M433.376 338.421C434.476 338.181 435.576 337.873 436.729 337.513M372.713 279.822C371.089 288.117 370.111 301.229 373.586 309.713L372.713 279.822ZM444.831 334.085C442.439 335.353 440.117 336.365 437.881 337.136L444.831 334.085ZM374.756 312.112C375.28 312.987 375.856 313.775 376.503 314.495L374.756 312.112ZM377.673 315.575C378.546 316.277 379.523 316.843 380.624 317.254L377.673 315.575ZM381.671 317.58C383.225 317.974 384.989 318.06 386.98 317.786C404.843 315.335 409.034 294.545 408.912 284.45C408.545 276.788 403.796 266.95 395.676 278.074C387.573 289.214 393.528 310.964 397.527 320.442C400.81 327.469 409.366 337.667 422.794 339.09L381.671 317.58ZM425.483 339.278C426.095 339.295 426.723 339.278 427.369 339.261L425.483 339.278ZM428.749 339.158C429.814 339.055 430.914 338.918 432.049 338.713L428.749 339.158Z" stroke="#14233C" stroke-linecap="round"/>
<path d="M82.9315 110.366C83.4205 110.263 83.9094 110.126 84.4158 109.972M56.0925 84.4342C55.3765 88.102 54.94 93.9122 56.4766 97.6657L56.0925 84.4342ZM87.9955 108.446C86.9303 109.012 85.9175 109.458 84.9222 109.8L87.9955 108.446ZM56.983 98.7112C57.21 99.1054 57.4719 99.4482 57.7513 99.7567L56.983 98.7112ZM58.2752 100.254C58.6594 100.562 59.0959 100.819 59.5848 100.991L58.2752 100.254ZM60.0389 101.145C60.7199 101.316 61.5057 101.368 62.3788 101.231C70.2716 100.151 72.14 90.9471 72.0876 86.4737C71.9305 83.0802 69.8176 78.7268 66.2379 83.6629C62.6582 88.5819 65.2949 98.2142 67.0586 102.413C68.5079 105.515 72.2972 110.04 78.2342 110.657L60.0389 101.145ZM79.4217 110.743C79.7011 110.743 79.963 110.743 80.2598 110.726L79.4217 110.743ZM80.871 110.692C81.3425 110.657 81.8314 110.589 82.3204 110.486L80.871 110.692Z" stroke="#FE4D56" stroke-linecap="round"/>
<path d="M223.658 59.428C226.242 57.9026 227.953 54.9889 228.512 53.7891C227.534 55.6402 224.321 58.5196 219.17 55.2631C214.019 52.0066 212.796 44.8767 212.814 41.7059C213.809 39.872 215.136 36.4956 215.678 35.0387C222.069 41.6888 228.512 42.9228 230.939 42.7C230.939 42.7 232.214 41.4831 233.629 41.4831C237.208 41.7059 237.121 46.4535 234.606 46.9848C232.598 47.3962 231.603 46.8134 231.289 46.8134L230.398 50.3613L232.494 59.5308L251.021 59.8736C255.177 57.4912 261.76 56.5657 264.466 56.4629C267.522 51.8695 272.272 42.1858 266.754 40.1462C259.874 37.5925 261.498 35.7243 258.11 31.7994C254.723 27.8574 248.943 32.0565 245.415 34.2161C241.888 36.3756 236.51 35.4672 234.484 30.891C231.341 22.6127 226.155 21.3273 223.937 21.7215C220.567 21.9957 213.268 25.4236 211.015 36.9583C208.763 48.4931 214.979 56.7371 218.349 59.3937L223.658 59.428Z" fill="#14233C"/>
<path d="M211.749 41.6717C213.338 41.2433 215.346 41.5346 216.673 43.1971C218.472 45.4424 218.856 48.836 217.284 51.4754C217.511 51.4754 219.624 50.8584 221.039 48.9217" stroke="#14233C" stroke-linecap="round"/>
<path d="M220.148 40.1976C221.056 39.4092 223.413 38.3637 225.561 40.4204" stroke="#14233C" stroke-linecap="round"/>
<path d="M221.859 52.6066C222.54 52.5894 224.059 52.1781 224.705 50.7041" stroke="#14233C" stroke-linecap="round"/>
<path d="M221.231 43.5913C221.685 42.4258 223.256 40.5062 225.963 42.1344" stroke="#14233C" stroke-linecap="round"/>
<path d="M212.395 45.7849C212.954 44.6709 214.7 42.8884 217.249 44.7566" stroke="#14233C" stroke-linecap="round"/>
<path d="M223.863 43.7147C224.397 43.5507 224.694 42.9931 224.527 42.4691C224.36 41.9451 223.792 41.6532 223.258 41.8172C222.724 41.9811 222.427 42.5388 222.594 43.0628C222.761 43.5867 223.329 43.8786 223.863 43.7147Z" fill="#14233C"/>
<path d="M215.005 46.1152C215.552 45.9986 215.899 45.4692 215.78 44.9327C215.661 44.3962 215.122 44.0558 214.575 44.1724C214.028 44.289 213.682 44.8185 213.8 45.355C213.919 45.8915 214.459 46.2318 215.005 46.1152Z" fill="#14233C"/>
<path d="M237.523 16.2198C232.284 13.529 228.565 20.1619 227.36 23.7954L232.057 27.4461C235.567 26.4006 244.088 19.5791 237.523 16.2198Z" fill="#14233C"/>
<path d="M239.845 152.203L251.021 59.8221L232.511 59.5307C231.533 62.3244 225.561 63.5413 223.64 59.3936L211.993 59.2051L227.272 152.186H239.845V152.203Z" fill="#14233C"/>
<path d="M244.123 159.179C245.485 166.583 251.335 182.745 263.96 188.127M268.168 151.072L269.478 194.88L211.574 263.506L237.505 366.821H231.655L268.168 151.072ZM213.093 181.151C211.19 183.088 208.955 185.453 206.51 188.144L213.093 181.151ZM200.591 194.863C188.315 209.208 173.769 228.816 169.369 243.778C168.757 246.075 168.181 248.44 167.657 250.84L200.591 194.863ZM200.591 194.863L140.137 204.101L167.657 250.84L200.591 194.863ZM200.591 194.863C202.651 192.446 204.642 190.201 206.528 188.127L200.591 194.863ZM167.64 250.84C163.711 268.716 162.262 288.82 162.174 307.674L167.64 250.84ZM162.174 307.674C162.052 332.011 164.165 354.241 166.051 366.821H231.655L162.174 307.674ZM162.174 307.674L154.578 313.45L162.174 307.674ZM196.312 150.215C153.6 152.426 121.732 167.594 111.133 174.913C104.602 179.814 92.466 195.377 96.133 218.326C99.8 241.293 123.077 301.589 134.27 328.875L154.578 313.432L196.312 150.215ZM206.51 188.127H123.339L154.578 313.432L206.51 188.127ZM231.655 366.821L196.312 241.533L254.793 196.371L252.54 178.632L231.655 366.821Z" stroke="#14233C" stroke-linecap="round"/>
<path d="M359.844 179.129L347.62 183.465L342.609 188.915M315.805 196.062L322.51 211.316L344.198 207.957L358.691 199.936C360.123 198.925 361.8 196.902 357.032 196.868C352.876 196.868 348.197 198.411 346.363 199.182L357.94 190.886L370.426 187.081C371.962 186.413 371.945 183.225 367.37 183.996L315.805 196.062ZM367.335 183.979C367.51 182.797 367.195 180.449 364.454 180.517L367.335 183.979ZM367.335 183.979L356.072 187.064L349.175 192.686L367.335 183.979ZM364.436 180.517C364.419 179.677 363.476 178.238 359.826 179.129L364.436 180.517ZM364.436 180.517L351.27 185.316L346.328 191.229L364.436 180.517ZM359.844 179.129C359.477 178.495 358.255 177.329 356.369 177.638C354.483 177.946 347.917 179.352 344.931 180.517L331.73 190.852L329.408 188.281L359.844 179.129Z" stroke="#14233C" stroke-linecap="round"/>
<path d="M249.973 60.4219C255.893 57.0969 271.312 51.938 285.543 57.9367C299.775 63.9183 300.822 75.7787 299.583 80.9719C304.699 80.8177 315.386 83.7314 317.132 96.6373C317.132 103.099 314.233 106.767 312.784 107.795C316.573 109.149 323.959 113.948 323.191 122.398C322.615 126.768 321.008 129.596 320.292 130.47C325.339 131.893 334.576 137.257 331.171 147.335C329.617 150.849 327.05 153.643 325.933 154.791C328.238 155.065 332.987 157.55 333.965 163.72C333.965 167.045 332.114 170.576 331.189 171.913C333.616 173.576 336.637 178.049 329.373 182.591L330.333 188.298L315.333 196.731L309.885 185.453C304.926 185.539 295.461 182.505 297.312 169.788C297.574 168.348 298.64 167.114 299.146 166.668C293.383 165.846 283.413 160.824 289.577 147.335C285.211 145.638 277.877 139.965 283.552 130.864C280.828 129.236 275.747 124.574 277.004 118.816C276.533 120.804 274.979 125.02 272.167 127.008C274.315 127.899 278.628 130.83 278.628 135.406C278.628 139.983 276.306 141.714 275.136 141.988C276.585 144.73 277.336 150.335 268.675 150.935C260.014 151.534 245.677 152.1 239.601 152.306L249.973 60.4219Z" fill="#FE4D56"/>
<path d="M268.168 105.91C265.462 106.784 257.674 108.001 248.262 105.91M326.195 172.41C322.405 173.096 313.36 174.364 307.493 173.953L326.195 172.41ZM301.206 155.768C306.393 156.505 318.022 157.55 323.051 155.768H301.206ZM288.442 136.555C295.025 136.846 309.833 136.418 316.398 132.441L288.442 136.555ZM308.541 109.269C303.407 111.206 290.782 114.925 281.282 114.239L308.541 109.269ZM246.673 127.796C250.864 128.482 261.044 129.442 268.168 127.796H246.673ZM246.673 143.239C250.567 144.147 259.822 145.433 265.549 143.239H246.673ZM295.654 83.0801C292.86 85.2568 284.268 89.9015 272.289 90.9984L295.654 83.0801Z" stroke="#14233C" stroke-linecap="round"/>
<path d="M228.582 409.258L241.259 401.186L225.544 373.146L202.441 380.43L205.567 389.017C194.636 401.597 178.99 428.917 172.529 441L223.972 412.686L226.347 403.105L228.582 409.258Z" fill="#14233C"/>
<path d="M202.459 380.43L225.561 373.146M222.016 366.838L225.544 373.146L222.016 366.838ZM197.482 366.804L202.441 380.43L197.482 366.804ZM202.459 380.43L205.585 389.017C194.653 401.597 179.007 428.917 172.547 441L223.99 412.686L226.364 403.105L228.599 409.258L241.277 401.186L225.561 373.146L202.459 380.43Z" stroke="#14233C" stroke-linecap="round"/>
<path d="M162.75 332.474C152.238 346.237 139.194 369.101 133.432 379.864L165.387 362.262C164.549 355.818 163.274 339.724 162.75 332.474Z" fill="#14233C"/>
<path fill-rule="evenodd" clip-rule="evenodd" d="M159.764 309.473L162.157 315.969L159.764 309.473ZM133.432 379.864C139.194 369.101 152.238 346.237 162.75 332.474C163.274 339.724 164.532 355.835 165.405 362.262L133.432 379.864Z" stroke="#14233C" stroke-linecap="round"/>
<path d="M225.893 269.761L269.635 194.983L211.609 263.626L225.159 317.511L238.85 328.618L225.893 269.761Z" fill="#14233C"/>
<path d="M317.76 184.168L320.467 192.412M328.657 182.642L326.264 182.985L328.657 182.642ZM310.845 185.145L313.43 184.785L310.845 185.145ZM326.264 182.985L327.172 189.275L326.264 182.985ZM326.264 182.985L322.091 183.568L326.264 182.985ZM322.091 183.568L323.942 190.938L322.091 183.568ZM322.091 183.568L317.76 184.185L322.091 183.568ZM313.43 184.785L317.184 194.109L313.43 184.785ZM313.43 184.785L317.76 184.168L313.43 184.785Z" stroke="#14233C" stroke-linecap="round"/>
<path d="M113.962 172.924C112.792 171.862 112.163 170.371 116.249 170.354C116.895 170.354 117.541 170.388 118.187 170.456M105.929 157.465C101.337 156.694 101.337 159.881 102.873 160.55L115.359 164.355L121.278 168.948L105.929 157.465ZM105.929 157.465C105.754 156.282 106.069 153.934 108.81 154.003L105.929 157.465ZM105.929 157.465L117.192 160.55L124.09 166.172L105.929 157.465ZM108.81 154.02C108.828 153.18 109.771 151.74 113.403 152.632L108.81 154.02ZM108.81 154.02L121.977 158.819L126.918 164.732L108.81 154.02ZM113.42 152.614C113.787 151.98 115.009 150.815 116.895 151.123C118.781 151.432 125.347 152.837 128.333 154.003L138.024 161.613L113.42 152.614ZM113.42 152.614L125.644 156.951L130.655 162.401L113.42 152.614Z" stroke="#14233C" stroke-linecap="round"/>
<path d="M216.551 59.1194C210.614 55.7944 195.212 50.6355 180.981 56.6342C166.749 62.6158 165.701 74.4762 166.941 79.6694C161.825 79.5152 151.138 82.4289 149.392 95.3348C149.392 101.796 152.291 105.464 153.74 106.492C149.951 107.846 142.564 112.645 143.333 121.095C143.909 125.466 145.515 128.294 146.231 129.168C143.926 129.442 139.194 132.304 138.216 138.492C138.216 141.817 140.067 145.347 140.993 146.684C138.565 148.347 135.545 152.82 142.809 157.379L142.372 159.744C148.554 157.688 163.623 153.266 176.72 151.62C177.209 149.923 177.279 148.501 176.929 146.05C181.295 144.353 188.629 138.68 182.954 129.579C185.678 127.951 190.759 123.289 189.502 117.53C189.974 119.518 191.528 123.735 194.356 125.723C192.209 126.614 187.896 129.545 187.896 134.121C187.896 138.697 190.218 140.428 191.37 140.702C189.921 143.445 188.804 151.62 197.465 152.22C206.126 152.82 226.958 151.946 226.958 151.946L216.551 59.1194Z" fill="#FE4D56"/>
<path fill-rule="evenodd" clip-rule="evenodd" d="M222.296 157.996L227.395 151.483L228.198 159.521L222.296 157.996Z" stroke="#14233C"/>
<path d="M146.371 148.107C149.881 148.946 158.123 150.386 163.012 149.375M178.501 135.424C171.918 135.715 157.11 135.286 150.544 131.31L178.501 135.424ZM158.385 108.155C163.519 110.092 176.144 113.811 185.643 113.125L158.385 108.155ZM220.27 126.682C216.079 127.368 205.899 128.328 198.774 126.682H220.27ZM220.27 142.125C216.359 143.033 207.121 144.319 201.394 142.125H220.27ZM171.272 81.9661C174.066 84.1428 182.657 88.7875 194.636 89.8844L171.272 81.9661ZM198.774 104.778C201.481 105.653 209.252 106.869 218.681 104.778H198.774Z" stroke="#14233C" stroke-linecap="round"/>
<path d="M146.319 158.048L147.646 158.236M143.926 157.722L146.319 158.065L143.926 157.722ZM146.319 158.048L146.196 158.922L146.319 158.048Z" stroke="#14233C" stroke-linecap="round"/>
<path d="M268.727 161.63L290.153 161.887M51.2556 159.042L96.4822 199.97L51.2556 159.042ZM51.2556 159.042L106.401 178.957L51.2556 159.042ZM51.2556 159.042L102.314 159.641L51.2556 159.042ZM324.326 257.644L415.024 163.361L333.406 162.401L324.326 257.644ZM324.326 257.644L319.943 402.18L224.583 315.9L324.326 257.644ZM324.326 257.644L242.656 228.164L324.326 257.644ZM142.564 160.121L135.946 160.036L142.564 160.121Z" stroke="#14233C"/>
<path d="M189.415 208.42L166.924 200.056" stroke="#14233C" stroke-linecap="round"/>
</svg>
